<svg width="54" height="53" viewBox="0 0 54 53" fill="none" xmlns="http://www.w3.org/2000/svg">
<circle cx="26.7754" cy="26.5" r="26.5" fill="#7FABDA"/>
<path d="M35.2783 16.7837H32.8491V15.5691C32.8491 15.2469 32.7212 14.938 32.4934 14.7102C32.2656 14.4825 31.9567 14.3545 31.6345 14.3545C31.3124 14.3545 31.0035 14.4825 30.7757 14.7102C30.5479 14.938 30.42 15.2469 30.42 15.5691V16.7837H23.1325V15.5691C23.1325 15.2469 23.0045 14.938 22.7767 14.7102C22.5489 14.4825 22.24 14.3545 21.9179 14.3545C21.5957 14.3545 21.2868 14.4825 21.059 14.7102C20.8313 14.938 20.7033 15.2469 20.7033 15.5691V16.7837H18.2741C17.3077 16.7837 16.3809 17.1676 15.6976 17.8509C15.0143 18.5342 14.6304 19.461 14.6304 20.4274V35.0024C14.6304 35.9688 15.0143 36.8956 15.6976 37.5789C16.3809 38.2623 17.3077 38.6462 18.2741 38.6462H35.2783C36.2447 38.6462 37.1715 38.2623 37.8548 37.5789C38.5381 36.8956 38.922 35.9688 38.922 35.0024V20.4274C38.922 19.461 38.5381 18.5342 37.8548 17.8509C37.1715 17.1676 36.2447 16.7837 35.2783 16.7837ZM36.4929 35.0024C36.4929 35.3245 36.3649 35.6335 36.1371 35.8612C35.9093 36.089 35.6004 36.217 35.2783 36.217H18.2741C17.952 36.217 17.6431 36.089 17.4153 35.8612C17.1875 35.6335 17.0595 35.3245 17.0595 35.0024V26.5003H36.4929V35.0024ZM36.4929 24.0712H17.0595V20.4274C17.0595 20.1053 17.1875 19.7963 17.4153 19.5686C17.6431 19.3408 17.952 19.2128 18.2741 19.2128H20.7033V20.4274C20.7033 20.7495 20.8313 21.0585 21.059 21.2862C21.2868 21.514 21.5957 21.642 21.9179 21.642C22.24 21.642 22.5489 21.514 22.7767 21.2862C23.0045 21.0585 23.1325 20.7495 23.1325 20.4274V19.2128H30.42V20.4274C30.42 20.7495 30.5479 21.0585 30.7757 21.2862C31.0035 21.514 31.3124 21.642 31.6345 21.642C31.9567 21.642 32.2656 21.514 32.4934 21.2862C32.7212 21.0585 32.8491 20.7495 32.8491 20.4274V19.2128H35.2783C35.6004 19.2128 35.9093 19.3408 36.1371 19.5686C36.3649 19.7963 36.4929 20.1053 36.4929 20.4274V24.0712Z" fill="white"/>
</svg>
