<svg width="137" height="122" viewBox="0 0 137 122" fill="none" xmlns="http://www.w3.org/2000/svg">
<ellipse cx="68.9505" cy="28.2717" rx="27.6819" ry="26.913" fill="#F4B4CF"/>
<circle cx="41.2683" cy="55.9537" r="27.6819" fill="#F4B4CF"/>
<circle cx="108.166" cy="45.9574" r="27.6819" fill="#F4B4CF"/>
<circle cx="98.1707" cy="88.2493" r="27.6819" fill="#F4B4CF"/>
<circle cx="59.7234" cy="93.6317" r="27.6819" fill="#F4B4CF"/>
<circle cx="70.4886" cy="60.5674" r="27.6819" fill="#F4B4CF"/>
<path d="M53.5718 49.8021C63.8603 65.9889 81.2117 57.296 84.3295 49.8021" stroke="#525566" stroke-width="3.91092"/>
<ellipse cx="76.0628" cy="39.0368" rx="4.03695" ry="5.3826" fill="#525566"/>
<ellipse cx="63.7606" cy="39.0368" rx="4.03695" ry="5.3826" fill="#525566"/>
<path d="M22.5485 47.8824L27.1461 42.4661C27.299 42.286 27.4149 42.0775 27.4872 41.8526C27.5595 41.6276 27.5868 41.3907 27.5676 41.1552C27.5483 40.9197 27.4828 40.6904 27.3749 40.4802C27.2669 40.2701 27.1187 40.0832 26.9385 39.9304L11.9893 27.2447C11.8097 27.0911 11.6014 26.9747 11.3765 26.9023C11.1515 26.8299 10.9144 26.8029 10.679 26.823L5.67145 27.2329C5.19597 27.2719 4.75543 27.4981 4.44674 27.8618C4.13805 28.2256 3.98649 28.697 4.02542 29.1725L4.43539 34.18C4.45392 34.4156 4.51909 34.6452 4.62712 34.8553C4.73514 35.0655 4.88387 35.2521 5.06465 35.4043L20.0128 48.09C20.1929 48.2429 20.4013 48.3588 20.6263 48.4311C20.8512 48.5035 21.0881 48.5308 21.3236 48.5115C21.5591 48.4922 21.7884 48.4267 21.9986 48.3188C22.2088 48.2109 22.3956 48.0626 22.5485 47.8824ZM11.227 28.9563L21.4934 37.6689L19.7764 39.6921L9.51111 30.9794L11.227 28.9563ZM9.03295 28.7625L6.08141 32.2405L5.81823 29.0257L9.03295 28.7625ZM6.62944 34.3738L8.34645 32.3506L18.6129 41.0632L16.8959 43.0864L6.62944 34.3738ZM18.2669 44.2499L22.8645 38.8325L25.7739 41.3015L21.1774 46.7189L18.2669 44.2499Z" fill="#939292"/>
<g clip-path="url(#clip0_448_2382)">
<path d="M114.09 20.8054L121.351 22.5749M115.27 15.9653L122.53 17.7348M122.795 11.3893L117.955 10.2096C117.634 10.1314 117.357 9.92891 117.185 9.64671C117.014 9.36452 116.961 9.02571 117.04 8.70483L117.335 7.49437C117.413 7.17349 117.615 6.89681 117.897 6.72522C118.18 6.55362 118.518 6.50115 118.839 6.57935L123.68 7.75911C123.839 7.79783 123.989 7.86747 124.121 7.96405C124.252 8.06062 124.364 8.18225 124.449 8.32198C124.534 8.46171 124.591 8.6168 124.616 8.77841C124.641 8.94002 124.634 9.10498 124.595 9.26386L124.3 10.4743C124.222 10.7952 124.019 11.0719 123.737 11.2435C123.455 11.4151 123.116 11.4675 122.795 11.3893Z" stroke="#939292" stroke-width="1.5" stroke-linecap="round" stroke-linejoin="round"/>
<path d="M128.224 10.1489C128.383 10.1877 128.533 10.2573 128.665 10.3539C128.797 10.4506 128.909 10.5722 128.994 10.712C129.079 10.8518 129.135 11.007 129.16 11.1687C129.185 11.3303 129.178 11.4953 129.139 11.6542L124.716 29.8054C124.637 30.1263 124.435 30.4029 124.153 30.5745C123.871 30.7461 123.532 30.7986 123.211 30.7204L108.69 27.1814C108.369 27.1032 108.092 26.9007 107.921 26.6186C107.749 26.3364 107.697 25.9976 107.775 25.6767L112.199 7.52553C112.237 7.36658 112.307 7.2168 112.403 7.08475C112.5 6.9527 112.622 6.84098 112.761 6.75595C112.901 6.67092 113.056 6.61426 113.218 6.58921C113.38 6.56416 113.545 6.5712 113.704 6.60993" stroke="#7FABDA" stroke-width="1.5" stroke-linecap="round" stroke-linejoin="round"/>
</g>
<defs>
<clipPath id="clip0_448_2382">
<rect width="29.8919" height="29.8919" fill="white" transform="translate(107.624) rotate(13.6969)"/>
</clipPath>
</defs>
</svg>
