<svg width="137" height="153" viewBox="0 0 137 153" fill="none" xmlns="http://www.w3.org/2000/svg">
<ellipse cx="69.9653" cy="60.6056" rx="27.2111" ry="26.4551" transform="rotate(-0.676316 69.9653 60.6056)" fill="#F4B4CF"/>
<ellipse cx="43.0763" cy="88.1359" rx="27.2111" ry="27.2109" transform="rotate(-0.676316 43.0763 88.1359)" fill="#F4B4CF"/>
<ellipse cx="108.716" cy="77.534" rx="27.2111" ry="27.2109" transform="rotate(-0.676316 108.716 77.534)" fill="#F4B4CF"/>
<ellipse cx="99.382" cy="119.22" rx="27.2111" ry="27.2109" transform="rotate(-0.676316 99.382 119.22)" fill="#F4B4CF"/>
<ellipse cx="61.6535" cy="124.956" rx="27.2111" ry="27.2109" transform="rotate(-0.676316 61.6535 124.956)" fill="#F4B4CF"/>
<ellipse cx="71.8522" cy="92.3317" rx="27.2111" ry="27.2109" transform="rotate(-0.676316 71.8522 92.3317)" fill="#F4B4CF"/>
<path d="M55.0996 81.9466C65.4003 97.7375 82.3545 88.9917 85.3321 81.5897" stroke="#525566" stroke-width="3.84439"/>
<ellipse cx="77.0817" cy="71.1042" rx="3.96829" ry="5.29101" transform="rotate(-0.676316 77.0817 71.1042)" fill="#525566"/>
<ellipse cx="64.989" cy="71.2469" rx="3.96829" ry="5.29101" transform="rotate(-0.676316 64.989 71.2469)" fill="#525566"/>
<path d="M11.7111 68.65C17.4224 69.2937 22.5741 65.1858 23.2179 59.4745C23.8616 53.7632 19.7537 48.6115 14.0423 47.9678C8.33097 47.324 3.17931 51.4319 2.53553 57.1432C1.89176 62.8546 5.99969 68.0062 11.7111 68.65Z" stroke="#939292" stroke-width="2.44862" stroke-linejoin="round"/>
<path d="M17.8691 54.3515C17.4061 53.7608 16.8321 53.269 16.1803 52.9044C15.5285 52.5399 14.8116 52.3098 14.0709 52.2273C13.3305 52.1428 12.5804 52.2076 11.8638 52.4179C11.1472 52.6282 10.4781 52.9799 9.8952 53.4527M20.9749 68.3682L26.2713 75.1075" stroke="#939292" stroke-width="2.44862" stroke-linecap="round" stroke-linejoin="round"/>
<path d="M57.5124 38.9072L57.4311 35.0211C57.3555 31.4139 58.7161 27.9243 61.2134 25.3202C63.7108 22.716 67.1403 21.2106 70.7476 21.1351C74.3549 21.0596 77.8445 22.4201 80.4487 24.9174C83.0528 27.4148 84.5583 30.8443 84.6338 34.4516L84.7152 38.3376L57.5124 38.9072ZM57.5124 38.9072L47.7972 39.1107L57.5124 38.9072ZM70.6667 17.2684L70.6857 17.2467L70.6667 17.2684Z" fill="#7FABDA"/>
<path d="M57.5124 38.9072L57.4311 35.0211C57.3555 31.4139 58.7161 27.9243 61.2134 25.3202C63.7108 22.716 67.1403 21.2106 70.7476 21.1351C74.3549 21.0596 77.8445 22.4201 80.4487 24.9174C83.0528 27.4148 84.5583 30.8443 84.6338 34.4516L84.7152 38.3376L57.5124 38.9072ZM57.5124 38.9072L47.7972 39.1107M70.6667 17.2684L70.6857 17.2467" stroke="#7FABDA" stroke-width="2.91521" stroke-linecap="round" stroke-linejoin="round"/>
</svg>
