<svg width="135" height="123" viewBox="0 0 135 123" fill="none" xmlns="http://www.w3.org/2000/svg">
<ellipse cx="66.2728" cy="27.4927" rx="28.2781" ry="27.4926" fill="#F4B4CF"/>
<circle cx="37.9944" cy="55.771" r="28.2781" fill="#F4B4CF"/>
<circle cx="106.333" cy="45.5591" r="28.2781" fill="#F4B4CF"/>
<circle cx="96.1219" cy="88.762" r="28.2781" fill="#F4B4CF"/>
<circle cx="56.8465" cy="94.2604" r="28.2781" fill="#F4B4CF"/>
<circle cx="67.8431" cy="60.4839" r="28.2781" fill="#F4B4CF"/>
<path d="M50.5625 49.4868C61.0726 66.0223 78.7978 57.1421 81.9826 49.4868" stroke="#525566" stroke-width="3.99516"/>
<ellipse cx="73.538" cy="38.4897" rx="4.12389" ry="5.49852" fill="#525566"/>
<ellipse cx="60.9711" cy="38.4897" rx="4.12389" ry="5.49852" fill="#525566"/>
<path fill-rule="evenodd" clip-rule="evenodd" d="M23.4597 16.8797C23.7842 16.7181 24.14 16.629 24.5024 16.6188C24.8648 16.6085 25.2251 16.6773 25.5582 16.8204C25.8913 16.9635 26.1893 17.1774 26.4314 17.4472C26.6735 17.7171 26.8539 18.0365 26.9601 18.3831L31.2773 32.4929C31.5986 33.5441 31.5642 34.6719 31.1793 35.7015C30.7944 36.731 30.0805 37.6048 29.1484 38.1873C28.2162 38.7699 27.118 39.0285 26.0238 38.9233C24.9297 38.818 23.9009 38.3547 23.0969 37.6051C22.293 36.8556 21.7588 35.8617 21.5772 34.7776C21.3957 33.6936 21.5769 32.5799 22.0928 31.6093C22.6086 30.6387 23.4303 29.8654 24.4305 29.4094C25.4306 28.9534 26.5532 28.8401 27.6243 29.0872L26.0336 23.8885L14.7052 29.5308L17.3178 38.0696C17.3397 38.1412 17.355 38.2122 17.3635 38.2827C17.73 39.1745 17.7914 40.1624 17.5379 41.0926C17.2844 42.0228 16.7304 42.8431 15.9621 43.4256C15.1939 44.0081 14.2545 44.3201 13.2904 44.3131C12.3263 44.306 11.3916 43.9803 10.6319 43.3866C9.87227 42.7929 9.3303 41.9646 9.09047 41.0308C8.85064 40.097 8.92641 39.1101 9.30599 38.2238C9.68556 37.3375 10.3476 36.6017 11.189 36.1309C12.0304 35.6602 13.0039 35.481 13.9577 35.6212L10.8568 25.4864C10.6838 24.9213 10.7169 24.3131 10.9502 23.7701C11.1835 23.2271 11.6019 22.7844 12.1309 22.5209L23.4597 16.8797ZM13.9649 27.1112L25.2933 21.4688L24.5727 19.1136L13.2443 24.7559L13.9649 27.1112Z" fill="black"/>
<path fill-rule="evenodd" clip-rule="evenodd" d="M127.356 15.0477C127.716 15.0852 128.065 15.2008 128.376 15.3865C128.687 15.5722 128.955 15.8234 129.159 16.1228C129.363 16.4222 129.5 16.7625 129.56 17.1201C129.62 17.4777 129.601 17.844 129.504 18.1936L125.583 32.4184C125.291 33.478 124.657 34.4115 123.78 35.0742C122.903 35.7369 121.832 36.0916 120.733 36.0835C119.633 36.0754 118.568 35.7049 117.701 35.0294C116.833 34.3539 116.213 33.4111 115.937 32.3474C115.66 31.2836 115.742 30.1582 116.17 29.1458C116.598 28.1334 117.348 27.2905 118.304 26.7479C119.26 26.2052 120.368 25.9931 121.457 26.1444C122.546 26.2958 123.554 26.8021 124.326 27.5849L125.77 22.3439L113.183 21.0323L110.81 29.6406C110.79 29.7128 110.764 29.781 110.734 29.8451C110.565 30.7943 110.087 31.6611 109.374 32.3104C108.662 32.9596 107.754 33.3549 106.793 33.4347C105.833 33.5144 104.872 33.2741 104.062 32.7512C103.252 32.2283 102.638 31.4522 102.315 30.5437C101.992 29.6353 101.979 28.6455 102.277 27.7287C102.575 26.8119 103.169 26.0195 103.964 25.4749C104.76 24.9303 105.713 24.6642 106.676 24.718C107.638 24.7718 108.556 25.1425 109.286 25.7723L112.103 15.5549C112.26 14.9851 112.614 14.4895 113.102 14.1563C113.59 13.823 114.181 13.6737 114.769 13.7349L127.356 15.0477ZM113.855 18.5929L126.443 19.9045L127.098 17.53L114.51 16.2185L113.855 18.5929Z" fill="black"/>
<g clip-path="url(#clip0_489_1333)">
<path d="M87.0914 32.7717C86.5245 32.1881 79.4548 31.5485 72.262 32.3591C70.8275 32.5201 70.7381 32.9294 67.3144 33.0635C63.8919 32.9305 63.8025 32.5212 62.3669 32.3591C55.1741 31.5485 48.1044 32.1892 47.5375 32.7717C47.2557 33.0635 47.2557 35.094 47.5375 35.3858C47.8215 35.6776 48.6947 36.0634 49.1062 37.4286C49.3712 38.3085 49.6596 43.9851 51.6566 45.6768C53.6334 47.3517 59.9998 47.0375 62.084 45.9698C64.9195 44.5185 65.3175 39.5015 65.7648 37.4286C65.9917 36.3787 67.064 36.2926 67.3133 36.2926C67.5627 36.2926 68.6349 36.3787 68.8619 37.4286C69.3103 39.5004 69.7083 44.5173 72.5427 45.9698C74.6279 47.0375 80.9933 47.3517 82.9701 45.6768C84.967 43.9851 85.2555 38.3085 85.5205 37.4286C85.9319 36.0645 86.8052 35.6776 87.0892 35.3858C87.3732 35.0951 87.3732 33.0635 87.0914 32.7717Z" fill="#31373D"/>
<path d="M63.5648 36.9852C63.4552 38.3884 62.9823 42.5377 61.6003 43.7866C60.0618 45.1764 54.6122 45.5398 52.8903 43.8358C51.9869 42.9425 51.1382 39.3433 51.2098 36.2149C51.2523 34.3376 53.7524 33.9563 57.3169 33.9563C60.8366 33.9563 63.7605 34.4796 63.5648 36.9852ZM71.0639 36.9852C71.1735 38.3884 71.6464 42.5377 73.0284 43.7866C74.5669 45.1764 80.0165 45.5398 81.7384 43.8358C82.6418 42.9425 83.4905 39.3433 83.4189 36.2149C83.3764 34.3376 80.8763 33.9563 77.3118 33.9563C73.7932 33.9563 70.8682 34.4796 71.0639 36.9852Z" fill="#7FABDA"/>
</g>
<defs>
<clipPath id="clip0_489_1333">
<rect width="40.2516" height="40.2516" fill="white" transform="translate(47.1919 19.4318)"/>
</clipPath>
</defs>
</svg>
