<svg width="128" height="133" viewBox="0 0 128 133" fill="none" xmlns="http://www.w3.org/2000/svg">
<ellipse cx="57.5986" cy="27.9993" rx="28.7992" ry="27.9993" fill="#F4B4CF"/>
<circle cx="28.7992" cy="56.7986" r="28.7992" fill="#F4B4CF"/>
<circle cx="98.3974" cy="46.3987" r="28.7992" fill="#F4B4CF"/>
<circle cx="87.9975" cy="90.3977" r="28.7992" fill="#F4B4CF"/>
<circle cx="47.9989" cy="95.9975" r="28.7992" fill="#F4B4CF"/>
<circle cx="59.1987" cy="61.5984" r="28.7992" fill="#F4B4CF"/>
<path d="M41.5981 50.3987C52.302 67.2389 70.3537 58.1951 73.5973 50.3987" stroke="#525566" stroke-width="4.06878"/>
<ellipse cx="64.9977" cy="39.199" rx="4.19989" ry="5.59985" fill="#525566"/>
<ellipse cx="52.1984" cy="39.199" rx="4.19989" ry="5.59985" fill="#525566"/>
<path d="M68.2043 127.927V125.453C66.8438 125.453 65.6794 124.969 64.7114 124.001C63.7433 123.033 63.2585 121.868 63.2568 120.506V93.2949C63.2568 91.9343 63.7417 90.77 64.7114 89.802C65.6811 88.8339 66.8454 88.3491 68.2043 88.3474H73.1518V80.9262C73.1518 80.2253 73.3893 79.6382 73.8642 79.1649C74.3392 78.6916 74.9263 78.4541 75.6255 78.4525H85.5205C86.2214 78.4525 86.8093 78.6899 87.2843 79.1649C87.7592 79.6398 87.9959 80.2269 87.9942 80.9262V88.3474H92.9417C94.3022 88.3474 95.4674 88.8323 96.4371 89.802C97.4068 90.7717 97.8908 91.936 97.8892 93.2949V120.506C97.8892 121.867 97.4051 123.032 96.4371 124.001C95.469 124.971 94.3039 125.455 92.9417 125.453V127.927H87.9942V125.453H73.1518V127.927H68.2043ZM78.0993 88.3474H83.0467V83.3999H78.0993V88.3474ZM80.573 103.19C82.7581 103.19 84.8922 102.912 86.975 102.356C89.0579 101.8 91.0468 100.965 92.9417 99.8503V93.2949H68.2043V99.8503C70.1008 100.963 72.0906 101.799 74.1734 102.356C76.2563 102.914 78.3895 103.191 80.573 103.19ZM78.0993 110.611V108.014C76.3676 107.807 74.6773 107.498 73.0281 107.086C71.3789 106.674 69.771 106.117 68.2043 105.416V120.506H92.9417V105.416C91.375 106.117 89.7671 106.674 88.1179 107.086C86.4687 107.498 84.7784 107.807 83.0467 108.014V110.611H78.0993Z" fill="#939292"/>
</svg>
