<svg width="90" height="90" viewBox="0 0 90 90" fill="none" xmlns="http://www.w3.org/2000/svg">
<path d="M46.324 77.4212L43.6784 80.078L21.2014 51.1278C18.7005 46.4836 16.877 41.7054 16.877 37.5007C16.877 21.5351 29.4873 9.37573 45.002 9.37573C60.5166 9.37573 73.127 21.5351 73.127 37.5007C73.127 41.7054 71.3034 46.4837 68.8027 51.1237L68.8026 51.1238C66.2725 55.8189 62.9251 60.5982 59.6102 64.8674C55.8509 69.6828 51.8545 74.3079 47.6357 78.7254L46.3259 77.423L46.324 77.4212ZM43.3654 79.7615C42.0589 78.4155 40.7738 77.0488 39.5107 75.6619L39.5094 75.6606C36.334 72.1811 33.2934 68.5809 30.3943 64.8681C27.0828 60.5986 23.7318 55.8157 21.2015 51.128L43.3654 79.7615ZM45.002 50.6257C48.4829 50.6257 51.8213 49.2429 54.2827 46.7815C56.7441 44.3201 58.127 40.9817 58.127 37.5007C58.127 34.0198 56.7441 30.6814 54.2827 28.22C51.8213 25.7585 48.4829 24.3757 45.002 24.3757C41.521 24.3757 38.1826 25.7585 35.7212 28.22C33.2598 30.6814 31.877 34.0198 31.877 37.5007C31.877 40.9817 33.2598 44.3201 35.7212 46.7815C38.1826 49.2429 41.521 50.6257 45.002 50.6257Z" fill="#FF7043" fill-opacity="0.8" stroke="#FF7043" stroke-width="3.75"/>
</svg>
