<svg width="53" height="53" viewBox="0 0 53 53" fill="none" xmlns="http://www.w3.org/2000/svg">
<circle cx="26.5" cy="26.5" r="26.5" fill="#F29EC2"/>
<path d="M25.4 11V14.312C22.584 14.6691 19.9665 15.9522 17.9593 17.9593C15.9522 19.9665 14.6691 22.584 14.312 25.4H11V28.6H14.312C14.6691 31.416 15.9522 34.0335 17.9593 36.0407C19.9665 38.0478 22.584 39.3309 25.4 39.688V43H28.6V39.688C31.416 39.3309 34.0335 38.0478 36.0407 36.0407C38.0478 34.0335 39.3309 31.416 39.688 28.6H43V25.4H39.688C39.3309 22.584 38.0478 19.9665 36.0407 17.9593C34.0335 15.9522 31.416 14.6691 28.6 14.312V11M25.4 17.528V20.6H28.6V17.544C32.6 18.2 35.8 21.4 36.472 25.4H33.4V28.6H36.456C35.8 32.6 32.6 35.8 28.6 36.472V33.4H25.4V36.456C21.4 35.8 18.2 32.6 17.528 28.6H20.6V25.4H17.544C18.2 21.4 21.4 18.2 25.4 17.528ZM27 25.4C26.5757 25.4 26.1687 25.5686 25.8686 25.8686C25.5686 26.1687 25.4 26.5757 25.4 27C25.4 27.4243 25.5686 27.8313 25.8686 28.1314C26.1687 28.4314 26.5757 28.6 27 28.6C27.4243 28.6 27.8313 28.4314 28.1314 28.1314C28.4314 27.8313 28.6 27.4243 28.6 27C28.6 26.5757 28.4314 26.1687 28.1314 25.8686C27.8313 25.5686 27.4243 25.4 27 25.4Z" fill="white"/>
</svg>
