<svg width="35" height="35" viewBox="0 0 35 35" fill="none" xmlns="http://www.w3.org/2000/svg">
<path d="M17.5003 30.625L16.9861 30.1086L16.4767 30.6159C16.1015 30.2231 15.731 29.8258 15.3652 29.4241L15.3647 29.4236C14.1298 28.0704 12.9473 26.6704 11.8198 25.2264C10.532 23.566 9.22879 21.706 8.24481 19.8829C7.27226 18.0769 6.56315 16.2188 6.56315 14.5837C6.56315 8.37478 11.4672 3.64616 17.5007 3.64616C23.5341 3.64616 28.4382 8.37478 28.4382 14.5837C28.4382 16.2188 27.729 18.077 26.7565 19.8815L26.7565 19.8815C25.7725 21.7075 24.4706 23.5663 23.1813 25.2266C21.7195 27.0991 20.1654 28.8976 18.5249 30.6155L18.0155 30.109L18.0148 30.1083L17.5003 30.625ZM17.5007 19.6878C18.8544 19.6878 20.1526 19.1501 21.1098 18.1929C22.0671 17.2356 22.6048 15.9374 22.6048 14.5837C22.6048 13.2299 22.0671 11.9317 21.1098 10.9745C20.1526 10.0173 18.8544 9.47949 17.5007 9.47949C16.1469 9.47949 14.8487 10.0173 13.8915 10.9745C12.9342 11.9317 12.3965 13.2299 12.3965 14.5837C12.3965 15.9374 12.9342 17.2356 13.8915 18.1929C14.8487 19.1501 16.1469 19.6878 17.5007 19.6878Z" fill="#FFC107" fill-opacity="0.8" stroke="#FFC107" stroke-width="1.45833"/>
</svg>
