<svg width="127" height="157" viewBox="0 0 127 157" fill="none" xmlns="http://www.w3.org/2000/svg">
<ellipse cx="36.0002" cy="35.0002" rx="36.0002" ry="35.0002" transform="matrix(-1 0 0 1 91 0.377258)" fill="#F4B4CF"/>
<circle cx="36.0002" cy="36.0002" r="36.0002" transform="matrix(-1 0 0 1 127 35.3776)" fill="#F4B4CF"/>
<circle cx="36.0002" cy="36.0002" r="36.0002" transform="matrix(-1 0 0 1 40.0005 22.3775)" fill="#F4B4CF"/>
<circle cx="36.0002" cy="36.0002" r="36.0002" transform="matrix(-1 0 0 1 53 77.3776)" fill="#F4B4CF"/>
<circle cx="36.0002" cy="36.0002" r="36.0002" transform="matrix(-1 0 0 1 103 84.3777)" fill="#F4B4CF"/>
<circle cx="36.0002" cy="36.0002" r="36.0002" transform="matrix(-1 0 0 1 89 41.3776)" fill="#F4B4CF"/>
<path d="M74.9995 63.3776C61.6193 84.4285 39.0539 73.1234 34.9993 63.3776" stroke="#525566" stroke-width="5.08613"/>
<ellipse cx="5.25003" cy="7.00003" rx="5.25003" ry="7.00003" transform="matrix(-1 0 0 1 51 42.3777)" fill="#525566"/>
<ellipse cx="5.25003" cy="7.00003" rx="5.25003" ry="7.00003" transform="matrix(-1 0 0 1 67 42.3777)" fill="#525566"/>
</svg>
