<svg width="318" height="91" viewBox="0 0 318 91" fill="none" xmlns="http://www.w3.org/2000/svg">
<rect x="243" width="75" height="91" rx="10" fill="#EBEBEB"/>
<rect width="243" height="91" rx="10" fill="#EBEBEB"/>
<path d="M243 10C243 4.47715 247.477 0 253 0H308C313.523 0 318 4.47715 318 10V26H243V10Z" fill="#4DB6AC"/>
<line x1="243.25" y1="9" x2="243.25" y2="82" stroke="#939292" stroke-width="0.5" stroke-dasharray="2 2"/>
<path d="M266.867 18V9.51562H269.891C271.859 9.51562 272.832 10.6992 272.832 12.2695C272.832 13.8281 271.859 15.0234 269.891 15.0234H268.156V18H266.867ZM268.156 13.9219H269.762C271.016 13.9219 271.531 13.2188 271.531 12.2695C271.531 11.3086 271.016 10.6172 269.762 10.6172H268.156V13.9219ZM273.791 18V9.51562H275.08V16.8867H278.912V18H273.791ZM280.985 18H279.614L282.661 9.51562H284.149L287.208 18H285.837L285.063 15.7617H281.759L280.985 18ZM282.134 14.6836H284.688L283.434 11.0625H283.376L282.134 14.6836ZM286.362 9.51562H287.827L290.03 13.3594H290.124L292.339 9.51562H293.804L290.722 14.6719V18H289.433V14.6719L286.362 9.51562Z" fill="white"/>
<path d="M23 44.25C18.9612 44.25 15.6875 46.8487 15.6875 50.0475C15.6875 52.0687 17 53.8462 18.9837 54.8812L18.3237 57.5287C18.3153 57.5618 18.3168 57.5966 18.3281 57.6288C18.3394 57.661 18.3601 57.6891 18.3873 57.7096C18.4146 57.73 18.4474 57.742 18.4815 57.7438C18.5155 57.7457 18.5494 57.7374 18.5788 57.72L21.875 55.7625C22.2481 55.811 22.6238 55.836 23 55.8375C27.0388 55.8375 30.3125 53.2462 30.3125 50.0475C30.3125 46.8487 27.0388 44.25 23 44.25Z" stroke="#616161" stroke-width="1.2" stroke-linecap="round" stroke-linejoin="round"/>
<path d="M22.9664 51.0638C23.5277 51.0638 23.9827 50.6088 23.9827 50.0475C23.9827 49.4862 23.5277 49.0312 22.9664 49.0312C22.4052 49.0312 21.9502 49.4862 21.9502 50.0475C21.9502 50.6088 22.4052 51.0638 22.9664 51.0638Z" stroke="#616161" stroke-width="0.6" stroke-linecap="round" stroke-linejoin="round"/>
<path d="M26.6188 51.0638C27.18 51.0638 27.635 50.6088 27.635 50.0475C27.635 49.4862 27.18 49.0312 26.6188 49.0312C26.0575 49.0312 25.6025 49.4862 25.6025 50.0475C25.6025 50.6088 26.0575 51.0638 26.6188 51.0638Z" stroke="#616161" stroke-width="0.6" stroke-linecap="round" stroke-linejoin="round"/>
<path d="M19.3175 51.0638C19.8788 51.0638 20.3338 50.6088 20.3338 50.0475C20.3338 49.4862 19.8788 49.0312 19.3175 49.0312C18.7563 49.0312 18.3013 49.4862 18.3013 50.0475C18.3013 50.6088 18.7563 51.0638 19.3175 51.0638Z" stroke="#616161" stroke-width="0.6" stroke-linecap="round" stroke-linejoin="round"/>
<path d="M258 72C259.381 72 260.5 70.8807 260.5 69.5C260.5 68.1193 259.381 67 258 67C256.619 67 255.5 68.1193 255.5 69.5C255.5 70.8807 256.619 72 258 72ZM259.667 69.5C259.667 70.4205 258.92 71.1667 258 71.1667C257.08 71.1667 256.333 70.4205 256.333 69.5C256.333 68.5795 257.08 67.8333 258 67.8333C258.92 67.8333 259.667 68.5795 259.667 69.5Z" fill="#939292"/>
<path d="M263 76.1667C263 77 262.167 77 262.167 77H253.833C253.833 77 253 77 253 76.1667C253 75.3333 253.833 72.8333 258 72.8333C262.167 72.8333 263 75.3333 263 76.1667ZM262.167 76.1638C262.165 75.9581 262.039 75.342 261.473 74.7768C260.93 74.2332 259.908 73.6667 258 73.6667C256.092 73.6667 255.07 74.2332 254.527 74.7768C253.961 75.342 253.835 75.9581 253.833 76.1638H262.167Z" fill="#939292"/>
<path d="M24.294 24.2049L23.706 24.7953L23.6989 24.7882L23.6871 24.7764L23.6848 24.774L23.6375 24.7259C23.6371 24.7256 23.6368 24.7253 23.6365 24.7249C23.3461 24.4258 23.0606 24.1221 22.7799 23.8139L22.7796 23.8136C22.0739 23.0404 21.3982 22.2404 20.754 21.4153C20.0181 20.4665 19.2734 19.4036 18.7112 18.3619C18.1554 17.3299 17.7502 16.268 17.7502 15.3337C17.7502 11.7857 20.5525 9.08366 24.0002 9.08366C27.4479 9.08366 30.2502 11.7857 30.2502 15.3337C30.2502 16.268 29.8449 17.3299 29.2892 18.361L29.2892 18.361C28.7269 19.4044 27.9831 20.4665 27.2464 21.4152C26.411 22.4853 25.5229 23.513 24.5854 24.4947L24.2944 24.2053L24.294 24.2049ZM23.7138 24.8036L23.7112 24.8006L23.7198 24.8092C23.7178 24.8073 23.7158 24.8055 23.7138 24.8036ZM24.0002 18.2503C24.7737 18.2503 25.5156 17.943 26.0626 17.3961C26.6095 16.8491 26.9168 16.1072 26.9168 15.3337C26.9168 14.5601 26.6095 13.8182 26.0626 13.2713C25.5156 12.7243 24.7737 12.417 24.0002 12.417C23.2266 12.417 22.4847 12.7243 21.9378 13.2713C21.3908 13.8182 21.0835 14.5601 21.0835 15.3337C21.0835 16.1072 21.3908 16.8491 21.9378 17.3961C22.4847 17.943 23.2266 18.2503 24.0002 18.2503Z" fill="#4DB6AC" fill-opacity="0.8" stroke="#4DB6AC" stroke-width="0.833333"/>
</svg>
