<svg width="53" height="53" viewBox="0 0 53 53" fill="none" xmlns="http://www.w3.org/2000/svg">
<circle cx="26.5" cy="26.5" r="26.5" fill="#F29EC2"/>
<path d="M34.4506 27.8224H27.8256V34.4474C27.8256 34.7988 27.686 35.1358 27.4375 35.3843C27.189 35.6328 26.852 35.7724 26.5006 35.7724C26.1492 35.7724 25.8122 35.6328 25.5637 35.3843C25.3152 35.1358 25.1756 34.7988 25.1756 34.4474V27.8224H18.5506C18.1992 27.8224 17.8622 27.6828 17.6137 27.4343C17.3652 27.1858 17.2256 26.8488 17.2256 26.4974C17.2256 26.146 17.3652 25.809 17.6137 25.5605C17.8622 25.312 18.1992 25.1724 18.5506 25.1724H25.1756V18.5474C25.1756 18.196 25.3152 17.859 25.5637 17.6105C25.8122 17.362 26.1492 17.2224 26.5006 17.2224C26.852 17.2224 27.189 17.362 27.4375 17.6105C27.686 17.859 27.8256 18.196 27.8256 18.5474V25.1724H34.4506C34.802 25.1724 35.139 25.312 35.3875 25.5605C35.636 25.809 35.7756 26.146 35.7756 26.4974C35.7756 26.8488 35.636 27.1858 35.3875 27.4343C35.139 27.6828 34.802 27.8224 34.4506 27.8224Z" fill="white"/>
</svg>
