<svg width="90" height="90" viewBox="0 0 90 90" fill="none" xmlns="http://www.w3.org/2000/svg">
<path d="M46.3235 77.4212L43.6779 80.078L21.201 51.1278C18.7 46.4836 16.8765 41.7054 16.8765 37.5007C16.8765 21.5351 29.4869 9.37573 45.0015 9.37573C60.5161 9.37573 73.1265 21.5351 73.1265 37.5007C73.1265 41.7054 71.3029 46.4837 68.8022 51.1237L68.8021 51.1238C66.272 55.8189 62.9246 60.5982 59.6097 64.8674C55.8504 69.6828 51.854 74.3079 47.6352 78.7254L46.3254 77.423L46.3235 77.4212ZM43.3649 79.7615C42.0584 78.4155 40.7733 77.0488 39.5102 75.6619L39.5089 75.6606C36.3335 72.1811 33.2929 68.5809 30.3938 64.8681C27.0823 60.5986 23.7313 55.8157 21.2011 51.128L43.3649 79.7615ZM45.0015 50.6257C48.4824 50.6257 51.8208 49.2429 54.2822 46.7815C56.7437 44.3201 58.1265 40.9817 58.1265 37.5007C58.1265 34.0198 56.7437 30.6814 54.2822 28.22C51.8208 25.7585 48.4824 24.3757 45.0015 24.3757C41.5205 24.3757 38.1821 25.7585 35.7207 28.22C33.2593 30.6814 31.8765 34.0198 31.8765 37.5007C31.8765 40.9817 33.2593 44.3201 35.7207 46.7815C38.1821 49.2429 41.5205 50.6257 45.0015 50.6257Z" fill="#7E57C2" fill-opacity="0.8" stroke="#7E57C2" stroke-width="3.75"/>
</svg>
