<svg width="47" height="46" viewBox="0 0 47 46" fill="none" xmlns="http://www.w3.org/2000/svg">
<ellipse cx="21.2049" cy="10.3078" rx="10.6023" ry="10.3078" fill="white"/>
<circle cx="10.6023" cy="20.9101" r="10.6023" fill="white"/>
<circle cx="36.2249" cy="17.0815" r="10.6023" fill="white"/>
<circle cx="32.3958" cy="33.2796" r="10.6023" fill="white"/>
<circle cx="17.6707" cy="35.341" r="10.6023" fill="white"/>
<circle cx="21.7937" cy="22.6773" r="10.6023" fill="white"/>
<path d="M15.3145 18.5541C19.255 24.7537 25.9007 21.4243 27.0948 18.554" stroke="#ADCAEA" stroke-width="1.4979"/>
<path d="M24.9598 14.4309C24.9598 14.8995 24.8167 15.3038 24.61 15.5794C24.4034 15.8549 24.1574 15.9771 23.929 15.9771C23.7006 15.9771 23.4546 15.8549 23.248 15.5794C23.0413 15.3038 22.8982 14.8995 22.8982 14.4309C22.8982 13.9624 23.0413 13.558 23.248 13.2824C23.4546 13.007 23.7006 12.8847 23.929 12.8847C24.1574 12.8847 24.4034 13.007 24.61 13.2824C24.8167 13.558 24.9598 13.9624 24.9598 14.4309Z" fill="#ADCAEA" stroke="#ADCAEA" stroke-width="1.03078"/>
<path d="M20.2474 14.4309C20.2474 14.8995 20.1043 15.3038 19.8976 15.5794C19.691 15.8549 19.445 15.9771 19.2166 15.9771C18.9882 15.9771 18.7422 15.8549 18.5356 15.5794C18.3289 15.3038 18.1858 14.8995 18.1858 14.4309C18.1858 13.9624 18.3289 13.558 18.5356 13.2824C18.7422 13.007 18.9882 12.8847 19.2166 12.8847C19.445 12.8847 19.691 13.007 19.8976 13.2824C20.1043 13.558 20.2474 13.9624 20.2474 14.4309Z" fill="#ADCAEA" stroke="#ADCAEA" stroke-width="1.03078"/>
</svg>
