<svg width="157" height="151" viewBox="0 0 157 151" fill="none" xmlns="http://www.w3.org/2000/svg">
<ellipse cx="75.3804" cy="55.3103" rx="28.4244" ry="27.6348" fill="#F4B4CF"/>
<circle cx="46.9561" cy="83.7348" r="28.4244" fill="#F4B4CF"/>
<circle cx="115.649" cy="73.4704" r="28.4244" fill="#F4B4CF"/>
<circle cx="105.384" cy="116.897" r="28.4244" fill="#F4B4CF"/>
<circle cx="65.9058" cy="122.423" r="28.4244" fill="#F4B4CF"/>
<circle cx="76.9595" cy="88.4721" r="28.4244" fill="#F4B4CF"/>
<path d="M59.5894 77.4182C70.1538 94.0392 87.9706 85.1131 91.172 77.4182" stroke="#525566" stroke-width="4.01582"/>
<ellipse cx="82.6838" cy="66.3642" rx="4.14522" ry="5.52696" fill="#525566"/>
<ellipse cx="70.0515" cy="66.3642" rx="4.14522" ry="5.52696" fill="#525566"/>
<path fill-rule="evenodd" clip-rule="evenodd" d="M6.48967 49.1335C6.67867 49 6.89213 48.9051 7.11784 48.8542C7.34355 48.8032 7.57709 48.7973 7.80511 48.8367C8.03312 48.876 8.25114 48.96 8.4467 49.0836C8.64225 49.2073 8.81151 49.3684 8.9448 49.5575L13.0702 55.3997C13.6092 56.1643 14.3751 56.7398 15.2595 57.0446C16.1439 57.3495 17.1018 57.3682 17.9974 57.0981L17.1578 55.9328L10.1094 48.1996C9.80435 47.853 9.64765 47.4005 9.67302 46.9395C9.69839 46.4785 9.90381 46.0459 10.245 45.7349C10.5863 45.4239 11.036 45.2594 11.4973 45.2768C11.9587 45.2941 12.3948 45.492 12.7117 45.8277L19.76 53.561L20.8444 54.5049C21.196 53.6379 21.2657 52.6822 21.0436 51.7734C20.8215 50.8646 20.319 50.0488 19.6072 49.4416L14.1697 44.7936C13.8266 44.4868 13.6172 44.0579 13.5865 43.5986C13.5558 43.1394 13.7061 42.6863 14.0053 42.3365C14.3045 41.9868 14.7288 41.7681 15.1872 41.7272C15.6457 41.6864 16.1019 41.8268 16.4582 42.1182L21.8957 46.7662C23.3224 47.9862 24.2736 49.6701 24.582 51.5218C24.8905 53.3736 24.5365 55.2748 23.5823 56.8915L35.0642 66.8977C35.502 67.2788 35.8542 67.7481 36.0978 68.2749C36.3413 68.8018 36.4707 69.3741 36.4773 69.9545C36.4839 70.5349 36.3677 71.1101 36.1363 71.6423C35.9049 72.1746 35.5635 72.6519 35.1346 73.0428C34.7056 73.4338 34.1988 73.7296 33.6474 73.9108C33.096 74.092 32.5126 74.1545 31.9353 74.0943C31.358 74.034 30.8001 73.8523 30.298 73.5611C29.796 73.2699 29.3612 72.8757 29.0223 72.4046L20.1206 60.0466C18.4226 60.8473 16.4968 61.0239 14.6815 60.5456C12.8662 60.0672 11.2775 58.9645 10.1946 57.431L6.06753 51.587C5.79848 51.2054 5.69199 50.7326 5.77148 50.2725C5.85097 49.8124 6.10818 49.4027 6.48967 49.1335Z" fill="#939292"/>
<path fill-rule="evenodd" clip-rule="evenodd" d="M133.967 46.7941L127.368 62.129C127.144 62.6496 126.813 63.1171 126.396 63.5007C125.978 63.8843 125.485 64.1753 124.947 64.3546C124.41 64.5339 123.84 64.5974 123.276 64.541C122.712 64.4846 122.167 64.3096 121.675 64.0274C121.184 63.7452 120.758 63.3622 120.425 62.9037C120.092 62.4451 119.86 61.9212 119.744 61.3666C119.627 60.8119 119.63 60.2389 119.751 59.6853C119.872 59.1317 120.109 58.6099 120.446 58.1542L130.363 44.725C128.829 42.8123 127.806 39.5392 129.837 35.9995C131.068 33.859 132.846 32.2526 134.71 31.3635C136.524 30.4988 138.714 30.1932 140.511 31.2247C142.307 32.2546 143.147 34.3016 143.314 36.3027C143.487 38.3613 142.996 40.7079 141.765 42.8485C139.733 46.3903 136.392 47.155 133.967 46.7941Z" fill="#939292"/>
<g clip-path="url(#clip0_489_1356)">
<path d="M83.2211 38.1344C83.676 38.09 84.097 37.8914 84.3915 37.5821C84.6861 37.2729 84.83 36.8783 84.7917 36.4853L84.0187 28.5577C83.9527 27.8805 84.4387 27.2542 85.1152 26.8935C86.5161 26.1497 87.5825 25.0083 88.1264 23.6708C88.6703 22.3333 88.6565 20.8856 88.0876 19.5834C87.5187 18.2811 86.4312 17.2079 85.0171 16.5532C83.6029 15.8985 81.953 15.7043 80.3585 16.005C79.5663 14.7393 78.3566 13.713 76.8789 13.0531C75.4011 12.3932 73.7202 12.1286 72.0439 12.2921C70.3676 12.4556 68.7695 13.0399 67.447 13.9728C66.1246 14.9057 65.1359 16.1464 64.6032 17.5413C62.9815 17.5553 61.4013 18.0649 60.1412 18.9804C58.8811 19.8958 58.0221 21.1583 57.7156 22.5452C57.4091 23.9321 57.6748 25.3544 58.4659 26.5613C59.2569 27.7682 60.5225 28.6822 62.0395 29.1422C62.773 29.3668 63.3709 29.8874 63.4368 30.5632L64.21 38.4923C64.2483 38.8853 64.4658 39.2446 64.8145 39.4911C65.1633 39.7376 65.6147 39.8512 66.0696 39.8069L83.2211 38.1344ZM63.7765 34.0469L84.3582 32.0399L63.7765 34.0469Z" fill="white"/>
<path d="M63.7765 34.0469L84.3582 32.0399M83.2211 38.1344C83.676 38.09 84.097 37.8914 84.3915 37.5821C84.6861 37.2729 84.83 36.8783 84.7917 36.4853L84.0187 28.5577C83.9527 27.8805 84.4387 27.2542 85.1152 26.8935C86.5161 26.1497 87.5825 25.0083 88.1264 23.6708C88.6703 22.3333 88.6565 20.8856 88.0876 19.5834C87.5187 18.2811 86.4312 17.2079 85.0171 16.5532C83.6029 15.8985 81.953 15.7043 80.3585 16.005C79.5663 14.7393 78.3566 13.713 76.8789 13.0531C75.4011 12.3932 73.7202 12.1286 72.0439 12.2921C70.3676 12.4556 68.7695 13.0399 67.447 13.9728C66.1246 14.9057 65.1359 16.1464 64.6032 17.5413C62.9815 17.5553 61.4013 18.0649 60.1412 18.9804C58.8811 19.8958 58.0221 21.1583 57.7156 22.5452C57.4091 23.9321 57.6748 25.3544 58.4659 26.5613C59.2569 27.7682 60.5225 28.6822 62.0395 29.1422C62.773 29.3668 63.3709 29.8874 63.4368 30.5632L64.21 38.4923C64.2483 38.8853 64.4658 39.2446 64.8145 39.4911C65.1633 39.7376 65.6147 39.8512 66.0696 39.8069L83.2211 38.1344Z" stroke="#F29EC2" stroke-width="2.97767" stroke-linecap="round" stroke-linejoin="round"/>
</g>
<defs>
<clipPath id="clip0_489_1356">
<rect width="39.2076" height="39.2076" fill="white" transform="translate(54.4116 3.80505) rotate(-5.56938)"/>
</clipPath>
</defs>
</svg>
