<svg width="31" height="31" viewBox="0 0 31 31" fill="none" xmlns="http://www.w3.org/2000/svg">
<path d="M25.2467 23.1907C25.5196 23.4636 25.673 23.8339 25.673 24.22C25.673 24.606 25.5196 24.9763 25.2467 25.2493C24.9737 25.5222 24.6034 25.6756 24.2174 25.6756C23.8313 25.6756 23.4611 25.5222 23.1881 25.2493L15.4998 17.5586L7.80916 25.2468C7.53617 25.5198 7.16593 25.6732 6.77986 25.6732C6.3938 25.6732 6.02355 25.5198 5.75057 25.2468C5.47758 24.9738 5.32422 24.6036 5.32422 24.2175C5.32422 23.8315 5.47758 23.4612 5.75057 23.1882L13.4412 15.5L5.75299 7.80933C5.48 7.53635 5.32664 7.1661 5.32664 6.78004C5.32664 6.39398 5.48 6.02373 5.75299 5.75074C6.02598 5.47775 6.39622 5.32439 6.78229 5.32439C7.16835 5.32439 7.5386 5.47775 7.81158 5.75074L15.4998 13.4414L23.1905 5.74953C23.4635 5.47654 23.8337 5.32318 24.2198 5.32318C24.6058 5.32318 24.9761 5.47654 25.2491 5.74953C25.5221 6.02252 25.6754 6.39277 25.6754 6.77883C25.6754 7.16489 25.5221 7.53514 25.2491 7.80812L17.5584 15.5L25.2467 23.1907Z" fill="white"/>
</svg>
