<svg width="121" height="120" viewBox="0 0 121 120" fill="none" xmlns="http://www.w3.org/2000/svg">
<ellipse cx="48.9908" cy="34.676" rx="22.4854" ry="21.8608" transform="rotate(-14.3854 48.9908 34.676)" fill="white"/>
<circle cx="32.7984" cy="62.0427" r="22.4854" transform="rotate(-14.3854 32.7984 62.0427)" fill="white"/>
<circle cx="83.4155" cy="40.6765" r="22.4854" transform="rotate(-14.3854 83.4155 40.6765)" fill="white"/>
<circle cx="84.0855" cy="75.9694" r="22.4854" transform="rotate(-14.3854 84.0855 75.9694)" fill="white"/>
<circle cx="54.9214" cy="87.9636" r="22.4854" transform="rotate(-14.3854 54.9214 87.9636)" fill="white"/>
<circle cx="56.7183" cy="59.7761" r="22.4854" transform="rotate(-14.3854 56.7183 59.7761)" fill="white"/>
<path d="M41.2383 54.7188C52.6 65.3785 64.4979 55.0372 65.4387 48.5117" stroke="#ADCAEA" stroke-width="3.17675"/>
<path d="M58.8801 41.1663C59.127 42.1289 59.0461 43.035 58.7667 43.71C58.4874 44.3847 58.0464 44.7654 57.5772 44.8858C57.1081 45.0061 56.5382 44.8847 55.9687 44.4277C55.3989 43.9704 54.8919 43.2151 54.645 42.2526C54.3981 41.29 54.479 40.384 54.7584 39.7089C55.0377 39.0342 55.4787 38.6535 55.9479 38.5332C56.417 38.4128 56.9869 38.5343 57.5564 38.9913C58.1262 39.4485 58.6332 40.2038 58.8801 41.1663Z" fill="#ADCAEA" stroke="#ADCAEA" stroke-width="2.18607"/>
<path d="M49.1984 43.6497C49.4453 44.6123 49.3644 45.5184 49.085 46.1934C48.8058 46.8681 48.3647 47.2488 47.8956 47.3692C47.4264 47.4895 46.8566 47.3681 46.2871 46.9111C45.7172 46.4538 45.2102 45.6985 44.9634 44.736C44.7165 43.7734 44.7974 42.8674 45.0768 42.1923C45.356 41.5176 45.7971 41.1369 46.2662 41.0166C46.7354 40.8962 47.3052 41.0177 47.8747 41.4747C48.4446 41.9319 48.9516 42.6872 49.1984 43.6497Z" fill="#ADCAEA" stroke="#ADCAEA" stroke-width="2.18607"/>
</svg>
