<svg width="318" height="91" viewBox="0 0 318 91" fill="none" xmlns="http://www.w3.org/2000/svg">
<rect x="243" width="75" height="91" rx="10" fill="#EBEBEB"/>
<rect width="243" height="91" rx="10" fill="#EBEBEB"/>
<path d="M243 10C243 4.47715 247.477 0 253 0H308C313.523 0 318 4.47715 318 10V26H243V10Z" fill="#FF7043"/>
<line x1="243.25" y1="9" x2="243.25" y2="82" stroke="#939292" stroke-width="0.5" stroke-dasharray="2 2"/>
<path d="M270.867 18V9.51562H276.188V10.6289H272.156V13.1953H275.906V14.2969H272.156V16.8867H276.234V18H270.867ZM278.096 18H276.725L279.772 9.51562H281.26L284.319 18H282.948L282.174 15.7617H278.87L278.096 18ZM279.245 14.6836H281.799L280.545 11.0625H280.487L279.245 14.6836ZM283.555 10.6289V9.51562H290.13V10.6289H287.493V18H286.204V10.6289H283.555Z" fill="white"/>
<path d="M24.2944 24.2046L23.7065 24.795L23.6995 24.788L23.6876 24.7762L23.6853 24.7738L23.6379 24.7257C23.6376 24.7254 23.6373 24.725 23.637 24.7247C23.3466 24.4256 23.0611 24.1219 22.7804 23.8137L22.7801 23.8134C22.0744 23.0401 21.3987 22.2401 20.7545 21.415C20.0186 20.4662 19.2739 19.4034 18.7117 18.3617C18.1559 17.3296 17.7507 16.2678 17.7507 15.3334C17.7507 11.7855 20.553 9.08341 24.0006 9.08341C27.4483 9.08341 30.2506 11.7855 30.2506 15.3334C30.2506 16.2678 29.8454 17.3296 29.2897 18.3607L29.2897 18.3608C28.7274 19.4041 27.9836 20.4662 27.2469 21.4149C26.4115 22.485 25.5234 23.5128 24.5859 24.4945L24.2949 24.205L24.2944 24.2046ZM23.7143 24.8034L23.7117 24.8004L23.7203 24.8089C23.7183 24.8071 23.7163 24.8052 23.7143 24.8034ZM24.0006 18.2501C24.7742 18.2501 25.5161 17.9428 26.063 17.3958C26.61 16.8488 26.9173 16.107 26.9173 15.3334C26.9173 14.5599 26.61 13.818 26.063 13.271C25.5161 12.724 24.7742 12.4167 24.0006 12.4167C23.2271 12.4167 22.4852 12.724 21.9383 13.271C21.3913 13.818 21.084 14.5599 21.084 15.3334C21.084 16.107 21.3913 16.8488 21.9383 17.3958C22.4852 17.9428 23.2271 18.2501 24.0006 18.2501Z" fill="#FF7043" fill-opacity="0.8" stroke="#FF7043" stroke-width="0.833333"/>
<path d="M23 44.25C18.9612 44.25 15.6875 46.8487 15.6875 50.0475C15.6875 52.0687 17 53.8462 18.9837 54.8812L18.3237 57.5287C18.3153 57.5618 18.3168 57.5966 18.3281 57.6288C18.3394 57.661 18.3601 57.6891 18.3873 57.7096C18.4146 57.73 18.4474 57.742 18.4815 57.7438C18.5155 57.7457 18.5494 57.7374 18.5788 57.72L21.875 55.7625C22.2481 55.811 22.6238 55.836 23 55.8375C27.0388 55.8375 30.3125 53.2462 30.3125 50.0475C30.3125 46.8487 27.0388 44.25 23 44.25Z" stroke="#616161" stroke-width="1.2" stroke-linecap="round" stroke-linejoin="round"/>
<path d="M22.9664 51.0638C23.5277 51.0638 23.9827 50.6088 23.9827 50.0475C23.9827 49.4862 23.5277 49.0312 22.9664 49.0312C22.4052 49.0312 21.9502 49.4862 21.9502 50.0475C21.9502 50.6088 22.4052 51.0638 22.9664 51.0638Z" stroke="#616161" stroke-width="0.6" stroke-linecap="round" stroke-linejoin="round"/>
<path d="M26.6188 51.0638C27.18 51.0638 27.635 50.6088 27.635 50.0475C27.635 49.4862 27.18 49.0312 26.6188 49.0312C26.0575 49.0312 25.6025 49.4862 25.6025 50.0475C25.6025 50.6088 26.0575 51.0638 26.6188 51.0638Z" stroke="#616161" stroke-width="0.6" stroke-linecap="round" stroke-linejoin="round"/>
<path d="M19.3175 51.0638C19.8788 51.0638 20.3338 50.6088 20.3338 50.0475C20.3338 49.4862 19.8788 49.0312 19.3175 49.0312C18.7563 49.0312 18.3013 49.4862 18.3013 50.0475C18.3013 50.6088 18.7563 51.0638 19.3175 51.0638Z" stroke="#616161" stroke-width="0.6" stroke-linecap="round" stroke-linejoin="round"/>
<path d="M258 72C259.381 72 260.5 70.8807 260.5 69.5C260.5 68.1193 259.381 67 258 67C256.619 67 255.5 68.1193 255.5 69.5C255.5 70.8807 256.619 72 258 72ZM259.667 69.5C259.667 70.4205 258.92 71.1667 258 71.1667C257.08 71.1667 256.333 70.4205 256.333 69.5C256.333 68.5795 257.08 67.8333 258 67.8333C258.92 67.8333 259.667 68.5795 259.667 69.5Z" fill="#939292"/>
<path d="M263 76.1667C263 77 262.167 77 262.167 77H253.833C253.833 77 253 77 253 76.1667C253 75.3333 253.833 72.8333 258 72.8333C262.167 72.8333 263 75.3333 263 76.1667ZM262.167 76.1638C262.165 75.9581 262.039 75.342 261.473 74.7768C260.93 74.2332 259.908 73.6667 258 73.6667C256.092 73.6667 255.07 74.2332 254.527 74.7768C253.961 75.342 253.835 75.9581 253.833 76.1638H262.167Z" fill="#939292"/>
</svg>
