<svg width="53" height="53" viewBox="0 0 53 53" fill="none" xmlns="http://www.w3.org/2000/svg">
<circle cx="26.5" cy="26.5" r="26.5" fill="white"/>
<path fill-rule="evenodd" clip-rule="evenodd" d="M26.8333 38.7292L27.7921 39.6852C27.6663 39.8115 27.5167 39.9117 27.3521 39.9801C27.1875 40.0485 27.0109 40.0837 26.8327 40.0837C26.6544 40.0837 26.4778 40.0485 26.3132 39.9801C26.1486 39.9117 25.999 39.8115 25.8732 39.6852L25.8651 39.6757L25.8421 39.6527L25.7581 39.5674C25.2808 39.0757 24.8113 38.5764 24.3498 38.0697C23.1912 36.8001 22.0817 35.4865 21.024 34.1318C19.816 32.5745 18.581 30.8141 17.6426 29.0753C16.7245 27.3704 16 25.5233 16 23.8333C16 17.6868 20.8642 13 26.8333 13C32.8025 13 37.6667 17.6868 37.6667 23.8333C37.6667 25.5233 36.9422 27.3704 36.0241 29.074C35.0856 30.8154 33.852 32.5745 32.6427 34.1318C31.1631 36.0271 29.5828 37.8416 27.9085 39.5674L27.8246 39.6527L27.8016 39.6757L27.7934 39.6839L26.8333 38.7292ZM26.8333 27.8958C27.9108 27.8958 28.9441 27.4678 29.706 26.706C30.4678 25.9441 30.8958 24.9108 30.8958 23.8333C30.8958 22.7559 30.4678 21.7226 29.706 20.9607C28.9441 20.1988 27.9108 19.7708 26.8333 19.7708C25.7559 19.7708 24.7226 20.1988 23.9607 20.9607C23.1988 21.7226 22.7708 22.7559 22.7708 23.8333C22.7708 24.9108 23.1988 25.9441 23.9607 26.706C24.7226 27.4678 25.7559 27.8958 26.8333 27.8958Z" fill="#FB8965"/>
</svg>
