<svg width="302" height="399" viewBox="0 0 302 399" fill="none" xmlns="http://www.w3.org/2000/svg">
<path d="M9 20C9 8.95431 17.9543 0 29 0H273C284.046 0 293 8.95431 293 20V265H9V20Z" fill="#F4B4CF"/>
<path d="M9 379C9 390.046 17.9543 399 29 399H273C284.046 399 293 390.046 293 379V265H9V379Z" fill="#F4B4CF"/>
<circle cx="9" cy="265" r="9" fill="white"/>
<circle cx="293" cy="265" r="9" fill="white"/>
<line x1="18" y1="264" x2="284" y2="264" stroke="white" stroke-width="2" stroke-dasharray="2 2"/>
<g clip-path="url(#clip0_1175_1051)">
<path d="M33.4998 89.4167C37.412 89.4167 40.5832 92.588 40.5832 96.5001C40.5832 100.412 37.412 103.583 33.4998 103.583C29.5877 103.583 26.4165 100.412 26.4165 96.5001C26.4165 92.588 29.5877 89.4167 33.4998 89.4167ZM33.4998 92.2501C33.312 92.2501 33.1318 92.3247 32.999 92.4575C32.8661 92.5904 32.7915 92.7706 32.7915 92.9584V96.5001C32.7915 96.6879 32.8662 96.8681 32.999 97.0009L35.124 99.1259C35.2576 99.2549 35.4366 99.3263 35.6223 99.3247C35.808 99.3231 35.9857 99.2486 36.117 99.1172C36.2483 98.9859 36.3228 98.8083 36.3244 98.6225C36.3261 98.4368 36.2547 98.2579 36.1256 98.1243L34.2082 96.2068V92.9584C34.2082 92.7706 34.1335 92.5904 34.0007 92.4575C33.8679 92.3247 33.6877 92.2501 33.4998 92.2501Z" fill="white"/>
</g>
<rect x="48.2012" y="174.843" width="62.0341" height="26.0006" rx="13.0003" transform="rotate(-14.5178 48.2012 174.843)" fill="#EFEFEF"/>
<rect x="87.2793" y="190.026" width="61.7305" height="26.0006" rx="13.0003" transform="rotate(18.1336 87.2793 190.026)" fill="#EFEFEF"/>
<rect x="25" y="221.74" width="71.2608" height="26.0006" rx="13.0003" transform="rotate(-0.147275 25 221.74)" fill="#EFEFEF"/>
<path d="M88.6573 171.483L90.3437 177.995L89.3246 178.259L87.6382 171.747L88.6573 171.483ZM90.498 178.59L91.1733 181.198L84.5821 182.905L84.8838 184.07L91.8984 182.253L92.1041 183.047L84.0571 185.131L83.3544 182.418L89.9588 180.707L89.6845 179.648L83.0669 181.362L82.8613 180.568L90.498 178.59ZM86.6256 173.182L86.8416 174.015L79.6284 175.883L79.4124 175.05L82.4962 174.251L82.1877 173.06L83.2333 172.789L83.5418 173.98L86.6256 173.182ZM83.3856 175.504C85.1458 175.048 86.4662 175.511 86.7713 176.689C87.0798 177.88 86.1433 178.899 84.383 179.355C82.6228 179.811 81.296 179.378 81.0007 178.183C80.6824 177.009 81.6253 175.959 83.3856 175.504ZM83.5878 176.284C82.4329 176.569 81.7985 177.228 81.9934 177.926C82.1618 178.631 83.0328 178.886 84.1842 178.587C85.3225 178.293 85.9603 177.647 85.7786 176.946C85.597 176.244 84.7226 175.976 83.5878 176.284ZM100.01 168.599L101.885 175.839L100.853 176.106L98.9778 168.867L100.01 168.599ZM96.4565 170.311L97.2929 173.54L92.9518 174.664L93.3837 176.332C95.4881 175.787 97.0493 175.326 98.8729 174.515L99.2149 175.344C97.3251 176.173 95.7275 176.657 93.557 177.219L92.604 177.466L91.7334 174.104L96.048 172.987L95.6504 171.451L91.3093 172.576L91.083 171.702L96.4565 170.311ZM98.0425 177.088C100.517 176.447 102.228 176.838 102.578 178.188C102.928 179.538 101.618 180.696 99.1428 181.337C96.6678 181.978 94.9734 181.598 94.6238 180.248C94.2741 178.898 95.5675 177.729 98.0425 177.088ZM98.2584 177.922C96.4319 178.395 95.4338 179.176 95.6429 179.984C95.852 180.791 97.1004 180.976 98.9268 180.503C100.753 180.03 101.742 179.266 101.533 178.458C101.323 177.651 100.085 177.449 98.2584 177.922Z" fill="black"/>
<path d="M121.969 216.616L120.624 220.722L119.598 220.386L120.674 217.098L113.931 214.89L114.199 214.072L121.969 216.616ZM124.415 209.145L122.186 215.953L121.159 215.617L122.159 212.564L119.456 211.679L118.712 213.953L113.411 212.217L115.1 207.059L120.401 208.794L119.733 210.834L122.435 211.719L123.388 208.809L124.415 209.145ZM115.841 208.222L114.692 211.73L117.979 212.806L119.128 209.298L115.841 208.222ZM128.907 218.657C131.284 219.436 132.458 220.683 132.016 222.035C131.569 223.399 129.885 223.711 127.503 222.945C125.129 222.154 123.929 220.897 124.376 219.533C124.819 218.182 126.529 217.879 128.907 218.657ZM128.643 219.463C126.898 218.906 125.662 219.033 125.403 219.869C125.117 220.697 126.034 221.543 127.775 222.114C129.529 222.688 130.756 222.543 131.029 221.711C131.301 220.88 130.393 220.05 128.643 219.463ZM134.988 212.607L134.035 215.517L135.776 216.087L135.491 216.958L133.75 216.388L132.712 219.558L131.698 219.226L133.974 212.275L134.988 212.607ZM127.214 210.867L126.635 212.634L130 213.736L130.579 211.969L131.592 212.301L129.848 217.628L124.469 215.866L126.213 210.539L127.214 210.867ZM125.742 215.362L129.107 216.464L129.737 214.541L126.371 213.439L125.742 215.362Z" fill="black"/>
<path d="M72.5734 228.988L72.5923 236.193L71.5122 236.196L71.5072 234.282L68.6635 234.289L68.6662 235.328L63.0881 235.343L63.0739 229.943L68.6521 229.928L68.6548 230.981L71.4986 230.973L71.4934 228.991L72.5734 228.988ZM64.1426 230.815L64.1522 234.465L67.6112 234.456L67.6016 230.806L64.1426 230.815ZM68.56 236.559C71.0893 236.552 72.6364 237.382 72.6403 238.845C72.6441 240.294 71.1013 241.119 68.572 241.125C66.0427 241.132 64.4956 240.316 64.4918 238.867C64.488 237.404 66.0308 236.566 68.56 236.559ZM68.5622 237.393C66.7029 237.412 65.5422 237.948 65.5583 238.864C65.5469 239.739 66.7104 240.283 68.5698 240.278C70.4291 240.273 71.5761 239.723 71.5739 238.848C71.5715 237.932 70.4216 237.402 68.5622 237.393ZM68.6611 233.387L71.5049 233.379L71.5009 231.862L68.6571 231.869L68.6611 233.387ZM85.3511 238.634L85.3534 239.523L74.2245 239.552L74.2222 238.663L79.1988 238.65L79.191 235.67L80.2437 235.667L80.2515 238.648L85.3511 238.634ZM80.2581 230.732C80.2634 232.769 82.6743 234.54 84.7944 234.903L84.3182 235.793C82.4647 235.422 80.5064 234.169 79.7156 232.415C78.9204 234.167 76.9823 235.436 75.1308 235.817L74.6499 234.93C76.7681 234.555 79.1423 232.772 79.137 230.734L79.1346 229.805L80.2557 229.802L80.2581 230.732Z" fill="black"/>
<defs>
<clipPath id="clip0_1175_1051">
<rect width="17" height="17" fill="white" transform="translate(25 88)"/>
</clipPath>
</defs>
</svg>
