<svg width="289" height="454" viewBox="0 0 289 454" fill="none" xmlns="http://www.w3.org/2000/svg">
<path d="M8.60352 21.6541C8.60352 9.69487 18.2984 0 30.2577 0H258.439C270.399 0 280.094 9.69489 280.094 21.6541V301.529H8.60352V21.6541Z" fill="#F4B4CF"/>
<path d="M8.60352 432.346C8.60352 444.305 18.2984 454 30.2577 454H258.439C270.399 454 280.094 444.305 280.094 432.346V301.529H8.60352V432.346Z" fill="#F4B4CF"/>
<ellipse cx="8.60356" cy="301.529" rx="8.60356" ry="10.2406" fill="white"/>
<ellipse cx="280.094" cy="301.529" rx="8.60356" ry="10.2406" fill="white"/>
<line x1="17.207" y1="300.446" x2="271.49" y2="300.446" stroke="white" stroke-width="2.16541" stroke-dasharray="2.17 2.17"/>
<g clip-path="url(#clip0_1262_1067)">
<path d="M39.7982 83.4666C43.8476 83.4666 47.1301 86.749 47.1301 90.7984C47.1301 94.8478 43.8476 98.1303 39.7982 98.1303C35.7488 98.1303 32.4663 94.8478 32.4663 90.7984C32.4663 86.749 35.7488 83.4666 39.7982 83.4666ZM39.7982 86.3993C39.6037 86.3993 39.4172 86.4765 39.2797 86.614C39.1422 86.7515 39.065 86.938 39.065 87.1325V90.7984C39.065 90.9929 39.1423 91.1793 39.2798 91.3168L41.4794 93.5163C41.6177 93.6499 41.8029 93.7238 41.9951 93.7221C42.1873 93.7205 42.3712 93.6434 42.5072 93.5074C42.6431 93.3715 42.7202 93.1876 42.7219 92.9953C42.7236 92.8031 42.6497 92.6179 42.5161 92.4796L40.5314 90.4949V87.1325C40.5314 86.938 40.4541 86.7515 40.3166 86.614C40.1791 86.4765 39.9926 86.3993 39.7982 86.3993Z" fill="white"/>
</g>
<defs>
<clipPath id="clip0_1262_1067">
<rect width="17.5965" height="17.5965" fill="white" transform="translate(31 82)"/>
</clipPath>
</defs>
</svg>
