<svg width="53" height="53" viewBox="0 0 53 53" fill="none" xmlns="http://www.w3.org/2000/svg">
<circle cx="26.5" cy="26.5" r="26.5" fill="white"/>
<path d="M31 39L23 36.2L16.8 38.6C16.3556 38.7778 15.9444 38.728 15.5667 38.4507C15.1889 38.1733 15 37.8009 15 37.3333V18.6667C15 18.3778 15.0836 18.1222 15.2507 17.9C15.4178 17.6778 15.6453 17.5111 15.9333 17.4L23 15L31 17.8L37.2 15.4C37.6444 15.2222 38.0556 15.2724 38.4333 15.5507C38.8111 15.8289 39 16.2009 39 16.6667V35.3333C39 35.6222 38.9169 35.8778 38.7507 36.1C38.5844 36.3222 38.3564 36.4889 38.0667 36.6L31 39ZM29.6667 35.7333V20.1333L24.3333 18.2667V33.8667L29.6667 35.7333ZM32.3333 35.7333L36.3333 34.4V18.6L32.3333 20.1333V35.7333ZM17.6667 35.4L21.6667 33.8667V18.2667L17.6667 19.6V35.4Z" fill="#4DB6AC"/>
</svg>
