<svg width="289" height="454" viewBox="0 0 289 454" fill="none" xmlns="http://www.w3.org/2000/svg">
<path d="M8.60352 21.6541C8.60352 9.69487 18.2984 0 30.2577 0H258.439C270.399 0 280.094 9.69489 280.094 21.6541V301.529H8.60352V21.6541Z" fill="#F4B4CF"/>
<path d="M8.60352 432.346C8.60352 444.305 18.2984 454 30.2577 454H258.439C270.399 454 280.094 444.305 280.094 432.346V301.529H8.60352V432.346Z" fill="#F4B4CF"/>
<ellipse cx="8.60356" cy="301.529" rx="8.60356" ry="10.2406" fill="white"/>
<ellipse cx="280.094" cy="301.529" rx="8.60356" ry="10.2406" fill="white"/>
<line x1="17.207" y1="300.446" x2="271.49" y2="300.446" stroke="white" stroke-width="2.16541" stroke-dasharray="2.17 2.17"/>
<path d="M8.60352 432.346C8.60352 444.305 18.2984 454 30.2577 454H258.439C270.399 454 280.094 444.305 280.094 432.346V301.529H8.60352V432.346Z" fill="#F4B4CF"/>
<ellipse cx="8.60356" cy="301.529" rx="8.60356" ry="10.2406" fill="white"/>
<ellipse cx="280.094" cy="301.529" rx="8.60356" ry="10.2406" fill="white"/>
<line x1="17.207" y1="300.446" x2="271.49" y2="300.446" stroke="white" stroke-width="2.16541" stroke-dasharray="2.17 2.17"/>
<g clip-path="url(#clip0_1424_1599)">
<path d="M41 82.667C45.6025 82.667 49.3333 86.3978 49.3333 91.0003C49.3333 95.6028 45.6025 99.3337 41 99.3337C36.3975 99.3337 32.6666 95.6028 32.6666 91.0003C32.6666 86.3978 36.3975 82.667 41 82.667ZM41 86.0003C40.7789 86.0003 40.567 86.0881 40.4107 86.2444C40.2544 86.4007 40.1666 86.6126 40.1666 86.8337V91.0003C40.1667 91.2213 40.2545 91.4332 40.4108 91.5895L42.9108 94.0895C43.068 94.2413 43.2785 94.3253 43.497 94.3234C43.7155 94.3215 43.9245 94.2338 44.079 94.0793C44.2335 93.9248 44.3211 93.7158 44.323 93.4973C44.3249 93.2788 44.2409 93.0683 44.0891 92.9112L41.8333 90.6553V86.8337C41.8333 86.6126 41.7455 86.4007 41.5892 86.2444C41.4329 86.0881 41.221 86.0003 41 86.0003Z" fill="white"/>
</g>
<rect x="95" y="123" width="99" height="159" rx="40" fill="#7FABDA"/>
<g clip-path="url(#clip1_1424_1599)">
<ellipse cx="162.955" cy="120.242" rx="8.4775" ry="8.24201" fill="white"/>
<circle cx="154.477" cy="128.72" r="8.4775" fill="white"/>
<circle cx="174.965" cy="125.658" r="8.4775" fill="white"/>
<circle cx="171.903" cy="138.61" r="8.4775" fill="white"/>
<circle cx="160.129" cy="140.258" r="8.4775" fill="white"/>
<circle cx="163.426" cy="130.132" r="8.4775" fill="white"/>
<ellipse cx="99.2307" cy="246.404" rx="7.61539" ry="7.40385" fill="white"/>
<circle cx="91.6154" cy="254.019" r="7.61539" fill="white"/>
<circle cx="110.019" cy="251.269" r="7.61539" fill="white"/>
<circle cx="107.269" cy="262.904" r="7.61539" fill="white"/>
<circle cx="96.6923" cy="264.384" r="7.61539" fill="white"/>
<circle cx="99.6537" cy="255.289" r="7.61539" fill="white"/>
<ellipse cx="192.231" cy="217.404" rx="7.61539" ry="7.40385" fill="white"/>
<circle cx="184.615" cy="225.02" r="7.61539" fill="white"/>
<circle cx="200.269" cy="233.903" r="7.61539" fill="white"/>
<circle cx="189.692" cy="235.384" r="7.61539" fill="white"/>
<circle cx="192.654" cy="226.288" r="7.61539" fill="white"/>
<g clip-path="url(#clip2_1424_1599)">
<g filter="url(#filter0_d_1424_1599)">
<path d="M168.029 189.447C168.857 191.093 168.198 193.085 166.559 193.892L155.708 199.351L153.783 220.088L149.843 222.088L146.858 203.821L135.978 209.295L135.021 214.723L132.043 216.203L130.557 208.316L125.096 202.395L128.067 200.865L133.052 203.373L143.848 197.942L130.98 184.595L134.935 182.623L152.733 193.437L163.584 187.978C165.16 187.15 167.257 187.843 168.029 189.447Z" fill="white"/>
</g>
</g>
</g>
<defs>
<filter id="filter0_d_1424_1599" x="121.096" y="182.623" width="51.2904" height="47.4644" filterUnits="userSpaceOnUse" color-interpolation-filters="sRGB">
<feFlood flood-opacity="0" result="BackgroundImageFix"/>
<feColorMatrix in="SourceAlpha" type="matrix" values="0 0 0 0 0 0 0 0 0 0 0 0 0 0 0 0 0 0 127 0" result="hardAlpha"/>
<feOffset dy="4"/>
<feGaussianBlur stdDeviation="2"/>
<feComposite in2="hardAlpha" operator="out"/>
<feColorMatrix type="matrix" values="0 0 0 0 0 0 0 0 0 0 0 0 0 0 0 0 0 0 0.25 0"/>
<feBlend mode="normal" in2="BackgroundImageFix" result="effect1_dropShadow_1424_1599"/>
<feBlend mode="normal" in="SourceGraphic" in2="effect1_dropShadow_1424_1599" result="shape"/>
</filter>
<clipPath id="clip0_1424_1599">
<rect width="20" height="20" fill="white" transform="translate(31 81)"/>
</clipPath>
<clipPath id="clip1_1424_1599">
<rect x="95" y="123" width="99" height="159" rx="40" fill="white"/>
</clipPath>
<clipPath id="clip2_1424_1599">
<rect width="52.995" height="52.995" fill="white" transform="translate(127.634 167) rotate(18.2931)"/>
</clipPath>
</defs>
</svg>
