<svg width="289" height="454" viewBox="0 0 289 454" fill="none" xmlns="http://www.w3.org/2000/svg">
<path d="M8.60352 21.6541C8.60352 9.69487 18.2984 0 30.2577 0H258.439C270.399 0 280.094 9.69489 280.094 21.6541V301.529H8.60352V21.6541Z" fill="#F4B4CF"/>
<path d="M8.60352 432.346C8.60352 444.305 18.2984 454 30.2577 454H258.439C270.399 454 280.094 444.305 280.094 432.346V301.529H8.60352V432.346Z" fill="#F4B4CF"/>
<ellipse cx="8.60356" cy="301.529" rx="8.60356" ry="10.2406" fill="white"/>
<ellipse cx="280.094" cy="301.529" rx="8.60356" ry="10.2406" fill="white"/>
<line x1="17.207" y1="300.446" x2="271.49" y2="300.446" stroke="white" stroke-width="2.16541" stroke-dasharray="2.17 2.17"/>
<path d="M8.60352 21.6541C8.60352 9.69487 18.2984 0 30.2577 0H258.439C270.399 0 280.094 9.69489 280.094 21.6541V301.529H8.60352V21.6541Z" fill="#F4B4CF"/>
<path d="M8.60352 432.346C8.60352 444.305 18.2984 454 30.2577 454H258.439C270.399 454 280.094 444.305 280.094 432.346V301.529H8.60352V432.346Z" fill="#F4B4CF"/>
<ellipse cx="8.60356" cy="301.529" rx="8.60356" ry="10.2406" fill="white"/>
<ellipse cx="280.094" cy="301.529" rx="8.60356" ry="10.2406" fill="white"/>
<line x1="17.207" y1="300.446" x2="271.49" y2="300.446" stroke="white" stroke-width="2.16541" stroke-dasharray="2.17 2.17"/>
<g clip-path="url(#clip0_1350_1283)">
<path d="M40.9998 82.6667C45.6023 82.6667 49.3332 86.3976 49.3332 91.0001C49.3332 95.6026 45.6023 99.3334 40.9998 99.3334C36.3973 99.3334 32.6665 95.6026 32.6665 91.0001C32.6665 86.3976 36.3973 82.6667 40.9998 82.6667ZM40.9998 86.0001C40.7788 86.0001 40.5669 86.0879 40.4106 86.2442C40.2543 86.4004 40.1665 86.6124 40.1665 86.8334V91.0001C40.1666 91.2211 40.2544 91.433 40.4107 91.5892L42.9107 94.0892C43.0678 94.241 43.2783 94.325 43.4968 94.3231C43.7153 94.3212 43.9243 94.2336 44.0789 94.0791C44.2334 93.9246 44.321 93.7156 44.3229 93.4971C44.3248 93.2786 44.2408 93.0681 44.089 92.9109L41.8332 90.6551V86.8334C41.8332 86.6124 41.7454 86.4004 41.5891 86.2442C41.4328 86.0879 41.2209 86.0001 40.9998 86.0001Z" fill="white"/>
</g>
<defs>
<clipPath id="clip0_1350_1283">
<rect width="20" height="20" fill="white" transform="translate(31 81)"/>
</clipPath>
</defs>
</svg>
