<svg width="53" height="53" viewBox="0 0 53 53" fill="none" xmlns="http://www.w3.org/2000/svg">
<circle cx="26.5" cy="26.5" r="26.5" fill="white"/>
<path d="M35.0029 16.7837H32.5737V15.5691C32.5737 15.2469 32.4458 14.938 32.218 14.7102C31.9902 14.4825 31.6813 14.3545 31.3591 14.3545C31.037 14.3545 30.7281 14.4825 30.5003 14.7102C30.2725 14.938 30.1446 15.2469 30.1446 15.5691V16.7837H22.8571V15.5691C22.8571 15.2469 22.7291 14.938 22.5013 14.7102C22.2735 14.4825 21.9646 14.3545 21.6425 14.3545C21.3204 14.3545 21.0114 14.4825 20.7836 14.7102C20.5559 14.938 20.4279 15.2469 20.4279 15.5691V16.7837H17.9987C17.0323 16.7837 16.1055 17.1676 15.4222 17.8509C14.7389 18.5342 14.355 19.461 14.355 20.4274V35.0024C14.355 35.9688 14.7389 36.8956 15.4222 37.5789C16.1055 38.2623 17.0323 38.6462 17.9987 38.6462H35.0029C35.9693 38.6462 36.8961 38.2623 37.5794 37.5789C38.2628 36.8956 38.6466 35.9688 38.6466 35.0024V20.4274C38.6466 19.461 38.2628 18.5342 37.5794 17.8509C36.8961 17.1676 35.9693 16.7837 35.0029 16.7837ZM36.2175 35.0024C36.2175 35.3245 36.0895 35.6335 35.8617 35.8612C35.634 36.089 35.325 36.217 35.0029 36.217H17.9987C17.6766 36.217 17.3677 36.089 17.1399 35.8612C16.9121 35.6335 16.7841 35.3245 16.7841 35.0024V26.5003H36.2175V35.0024ZM36.2175 24.0712H16.7841V20.4274C16.7841 20.1053 16.9121 19.7963 17.1399 19.5686C17.3677 19.3408 17.6766 19.2128 17.9987 19.2128H20.4279V20.4274C20.4279 20.7495 20.5559 21.0585 20.7836 21.2862C21.0114 21.514 21.3204 21.642 21.6425 21.642C21.9646 21.642 22.2735 21.514 22.5013 21.2862C22.7291 21.0585 22.8571 20.7495 22.8571 20.4274V19.2128H30.1446V20.4274C30.1446 20.7495 30.2725 21.0585 30.5003 21.2862C30.7281 21.514 31.037 21.642 31.3591 21.642C31.6813 21.642 31.9902 21.514 32.218 21.2862C32.4458 21.0585 32.5737 20.7495 32.5737 20.4274V19.2128H35.0029C35.325 19.2128 35.634 19.3408 35.8617 19.5686C36.0895 19.7963 36.2175 20.1053 36.2175 20.4274V24.0712Z" fill="#7FABDA"/>
</svg>
