<svg width="393" height="852" viewBox="0 0 393 852" fill="none" xmlns="http://www.w3.org/2000/svg">
<g clip-path="url(#clip0_1329_1189)">
<rect width="393" height="852" fill="#7FABDA"/>
<path d="M-2.98755 590.593H397.491V852H-2.98755V590.593Z" fill="#575A6B"/>
<ellipse cx="197" cy="591.167" rx="202" ry="52.1667" fill="#575A6B"/>
<path d="M186.74 541H205.918L209 606H184L186.74 541Z" fill="#84879A"/>
<path d="M182.726 631H208.808L213 713H179L182.726 631Z" fill="#84879A"/>
<path d="M178.151 737H214.205L220 852H173L178.151 737Z" fill="#84879A"/>
<ellipse cx="233.542" cy="478.597" rx="24.2709" ry="23.5967" fill="white"/>
<circle cx="209.271" cy="502.868" r="24.2709" fill="white"/>
<circle cx="267.925" cy="494.103" r="24.2709" fill="white"/>
<circle cx="259.161" cy="531.184" r="24.2709" fill="white"/>
<circle cx="225.451" cy="535.903" r="24.2709" fill="white"/>
<circle cx="234.89" cy="506.913" r="24.2709" fill="white"/>
<path d="M220.057 497.474C229.078 511.666 244.291 504.045 247.025 497.474" stroke="#ADCAEA" stroke-width="3.42902"/>
<ellipse cx="239.777" cy="488.036" rx="3.53951" ry="4.71935" fill="#ADCAEA"/>
<ellipse cx="228.991" cy="488.036" rx="3.53951" ry="4.71935" fill="#ADCAEA"/>
<path d="M242.48 562.812V560.728C241.333 560.728 240.352 560.32 239.536 559.504C238.721 558.688 238.312 557.706 238.311 556.558V533.626C238.311 532.479 238.719 531.498 239.536 530.682C240.354 529.866 241.335 529.457 242.48 529.456H246.65V523.202C246.65 522.611 246.85 522.116 247.25 521.717C247.65 521.318 248.145 521.118 248.734 521.117H257.074C257.664 521.117 258.16 521.317 258.56 521.717C258.96 522.118 259.16 522.612 259.158 523.202V529.456H263.328C264.474 529.456 265.456 529.865 266.274 530.682C267.091 531.499 267.499 532.48 267.497 533.626V556.558C267.497 557.705 267.089 558.687 266.274 559.504C265.458 560.321 264.476 560.729 263.328 560.728V562.812H259.158V560.728H246.65V562.812H242.48ZM250.819 529.456H254.989V525.286H250.819V529.456ZM252.904 541.965C254.746 541.965 256.544 541.73 258.299 541.262C260.055 540.794 261.731 540.09 263.328 539.15V533.626H242.48V539.15C244.078 540.088 245.755 540.792 247.511 541.262C249.266 541.732 251.064 541.966 252.904 541.965ZM250.819 548.219V546.03C249.36 545.856 247.935 545.596 246.545 545.248C245.156 544.901 243.8 544.432 242.48 543.841V556.558H263.328V543.841C262.007 544.432 260.652 544.901 259.263 545.248C257.873 545.596 256.448 545.856 254.989 546.03V548.219H250.819Z" fill="#939292"/>
<ellipse cx="154.454" cy="479.788" rx="24.2709" ry="23.5967" fill="#F4B4CF"/>
<circle cx="130.183" cy="504.059" r="24.2709" fill="#F4B4CF"/>
<circle cx="188.838" cy="495.295" r="24.2709" fill="#F4B4CF"/>
<circle cx="180.074" cy="532.375" r="24.2709" fill="#F4B4CF"/>
<circle cx="146.365" cy="537.095" r="24.2709" fill="#F4B4CF"/>
<circle cx="155.803" cy="508.104" r="24.2709" fill="#F4B4CF"/>
<path d="M140.971 498.666C149.991 512.858 165.205 505.236 167.938 498.666" stroke="#525566" stroke-width="3.42902"/>
<ellipse cx="160.69" cy="489.227" rx="3.53951" ry="4.71935" fill="#525566"/>
<ellipse cx="149.904" cy="489.227" rx="3.53951" ry="4.71935" fill="#525566"/>
<path d="M113.77 496.982L117.801 492.233C117.935 492.075 118.037 491.893 118.1 491.696C118.164 491.498 118.188 491.291 118.171 491.084C118.154 490.878 118.096 490.677 118.002 490.492C117.907 490.308 117.777 490.144 117.619 490.01L104.512 478.888C104.355 478.753 104.172 478.651 103.975 478.587C103.777 478.524 103.57 478.5 103.363 478.518L98.9726 478.877C98.5558 478.911 98.1695 479.11 97.8988 479.429C97.6282 479.748 97.4953 480.161 97.5294 480.578L97.8889 484.968C97.9051 485.175 97.9623 485.376 98.057 485.56C98.1517 485.745 98.2821 485.908 98.4406 486.042L111.547 497.164C111.705 497.298 111.888 497.4 112.085 497.463C112.282 497.527 112.49 497.551 112.696 497.534C112.903 497.517 113.104 497.46 113.288 497.365C113.472 497.27 113.636 497.14 113.77 496.982ZM103.844 480.388L112.845 488.027L111.34 489.801L102.339 482.162L103.844 480.388ZM101.92 480.218L99.3321 483.268L99.1013 480.449L101.92 480.218ZM99.8126 485.138L101.318 483.364L110.319 491.003L108.814 492.777L99.8126 485.138ZM110.016 493.797L114.047 489.048L116.598 491.212L112.568 495.962L110.016 493.797Z" fill="#939292"/>
<g clip-path="url(#clip1_1329_1189)">
<path d="M194.032 473.242L200.398 474.793M195.067 468.998L201.432 470.55M201.665 464.986L197.42 463.952C197.139 463.883 196.896 463.706 196.746 463.458C196.595 463.211 196.549 462.914 196.618 462.632L196.877 461.571C196.945 461.29 197.123 461.047 197.37 460.897C197.618 460.746 197.915 460.7 198.196 460.769L202.44 461.803C202.58 461.837 202.711 461.898 202.827 461.983C202.942 462.068 203.04 462.174 203.115 462.297C203.189 462.419 203.239 462.555 203.261 462.697C203.283 462.839 203.276 462.983 203.243 463.123L202.984 464.184C202.915 464.465 202.738 464.708 202.49 464.858C202.243 465.009 201.946 465.055 201.665 464.986Z" stroke="#939292" stroke-width="1.5" stroke-linecap="round" stroke-linejoin="round"/>
<path d="M206.425 463.898C206.564 463.932 206.695 463.994 206.811 464.078C206.927 464.163 207.025 464.27 207.099 464.392C207.174 464.515 207.223 464.651 207.245 464.793C207.267 464.934 207.261 465.079 207.227 465.218L203.348 481.133C203.28 481.414 203.102 481.657 202.855 481.807C202.607 481.958 202.31 482.004 202.029 481.935L189.297 478.832C189.016 478.764 188.773 478.586 188.623 478.339C188.472 478.091 188.426 477.794 188.495 477.513L192.374 461.598C192.408 461.459 192.469 461.328 192.553 461.212C192.638 461.096 192.745 460.998 192.867 460.924C192.99 460.849 193.126 460.799 193.267 460.777C193.409 460.755 193.554 460.762 193.693 460.796" stroke="#525566" stroke-width="1.5" stroke-linecap="round" stroke-linejoin="round"/>
</g>
</g>
<defs>
<clipPath id="clip0_1329_1189">
<rect width="393" height="852" fill="white"/>
</clipPath>
<clipPath id="clip1_1329_1189">
<rect width="26.2086" height="26.2086" fill="white" transform="translate(188.362 455) rotate(13.6969)"/>
</clipPath>
</defs>
</svg>
