<svg width="24" height="24" viewBox="0 0 24 24" fill="none" xmlns="http://www.w3.org/2000/svg">
<circle cx="12" cy="12" r="12" fill="#F29EC2"/>
<path d="M17.8283 7.89999L5.66318 8.63018C5.56782 8.63589 5.47616 8.66905 5.39921 8.72565C5.32227 8.78226 5.26333 8.8599 5.22948 8.94922C5.19791 9.03582 5.19111 9.1295 5.20986 9.21975C5.22861 9.30999 5.27216 9.39322 5.33562 9.46007L9.27386 13.3481L10.6473 18.6998C10.6672 18.7747 10.7044 18.8439 10.756 18.9018C10.8075 18.9597 10.8719 19.0047 10.944 19.0332C11.0161 19.0617 11.0939 19.0729 11.1711 19.0658C11.2483 19.0588 11.3228 19.0338 11.3885 18.9927C11.4555 18.9535 11.5123 18.8992 11.5544 18.834L18.2693 8.66377C18.3188 8.58718 18.3462 8.49842 18.3485 8.40726C18.3508 8.3161 18.3279 8.22607 18.2823 8.1471C18.2367 8.06813 18.1702 8.00327 18.0901 7.95967C18.01 7.91607 17.9194 7.89541 17.8283 7.89999ZM11.3377 17.3686L10.2768 13.3412L14.2416 11.0521L13.7462 10.1939L9.78133 12.483L6.82389 9.55054L16.8946 8.94829L11.3377 17.3686Z" fill="white"/>
</svg>
