<svg width="20" height="20" viewBox="0 0 20 20" fill="none" xmlns="http://www.w3.org/2000/svg">
<path d="M1.78606 3.92848H4.08606C4.24501 3.92766 4.39951 3.98097 4.52413 4.07963C4.64876 4.1783 4.7361 4.31644 4.77178 4.47133L5.50035 7.32848L12.6432 5.8999C13.4032 5.75085 14.1868 5.77111 14.9381 5.95924C15.6894 6.14737 16.3901 6.49875 16.9902 6.98839C17.5903 7.47803 18.0751 8.09389 18.4102 8.79217C18.7453 9.49045 18.9224 10.254 18.9289 11.0285C18.9289 11.4074 18.7784 11.7707 18.5105 12.0386C18.2426 12.3065 17.8792 12.457 17.5003 12.457H11.2146L9.78606 14.7142C9.52791 15.1166 9.17293 15.4477 8.75363 15.6773C8.33433 15.9069 7.86412 16.0277 7.38606 16.0285H5.81463C5.69249 16.0275 5.57264 15.9952 5.46652 15.9347C5.36041 15.8743 5.27158 15.7876 5.20853 15.6829C5.14547 15.5783 5.1103 15.4593 5.10636 15.3372C5.10243 15.2151 5.12987 15.0941 5.18606 14.9856L6.44321 12.4999H2.50035C2.12147 12.4999 1.75811 12.3494 1.4902 12.0815C1.22229 11.8136 1.07178 11.4502 1.07178 11.0713V4.64276C1.07178 4.45332 1.14703 4.27164 1.28099 4.13769C1.41494 4.00373 1.59662 3.92848 1.78606 3.92848Z" stroke="white" stroke-width="1.42857" stroke-linecap="round" stroke-linejoin="round"/>
</svg>
