<svg width="309" height="298" viewBox="0 0 309 298" fill="none" xmlns="http://www.w3.org/2000/svg">
<rect width="309" height="297.449" rx="25" fill="#F4B4CF"/>
<rect opacity="0.8" x="148" y="114" width="122" height="24" rx="12" fill="white"/>
<path d="M171.045 126.602V127.236H163.135V126.602H166.709V125.557H164.19V122.314H164.951V123.32H169.248V122.314H170.01V125.557H167.471V126.602H171.045ZM170.069 128.096V130.791H169.297V128.711H164.014V128.096H170.069ZM164.951 124.941H169.248V123.906H164.951V124.941ZM174.317 123.633C174.307 124.756 175.167 125.771 176.456 126.182L176.085 126.777C175.084 126.455 174.317 125.771 173.946 124.902C173.565 125.864 172.764 126.606 171.719 126.963L171.319 126.357C172.628 125.918 173.536 124.863 173.546 123.643V123.33H171.573V122.695H176.251V123.33H174.317V123.633ZM178.165 122.109V124.121H179.473V124.766H178.165V126.865H177.403V122.109H178.165ZM173.428 127.285V128.35H177.403V127.285H178.165V130.674H172.667V127.285H173.428ZM173.428 130.049H177.403V128.955H173.428V130.049ZM186.407 122.119V124.98H187.716V125.625H186.407V128.623H185.646V122.119H186.407ZM184.815 123.184V123.809H179.64V123.184H181.847V122.119H182.608V123.184H184.815ZM182.228 124.287C183.468 124.287 184.308 124.922 184.317 125.908C184.308 126.885 183.468 127.51 182.228 127.51C180.978 127.51 180.128 126.885 180.138 125.908C180.128 124.922 180.978 124.287 182.228 124.287ZM182.228 124.893C181.407 124.893 180.86 125.293 180.87 125.908C180.86 126.523 181.407 126.914 182.228 126.904C183.038 126.914 183.585 126.523 183.595 125.908C183.585 125.293 183.038 124.893 182.228 124.893ZM186.808 129.961V130.605H180.978V128.105H181.729V129.961H186.808ZM192.433 122.432C193.732 122.441 194.679 123.223 194.679 124.355C194.679 125.488 193.732 126.27 192.433 126.27C191.115 126.27 190.178 125.488 190.178 124.355C190.178 123.223 191.115 122.441 192.433 122.432ZM192.433 123.076C191.564 123.076 190.92 123.604 190.929 124.355C190.92 125.117 191.564 125.645 192.433 125.645C193.293 125.645 193.937 125.117 193.937 124.355C193.937 123.604 193.293 123.076 192.433 123.076ZM197.14 122.109V126.572H196.379V122.109H197.14ZM197.14 126.992V129.082H192.267V130.059H197.453V130.674H191.515V128.506H196.379V127.607H191.496V126.992H197.14ZM205.412 122.109V127.285H204.641V125.01H202.893V124.375H204.641V122.109H205.412ZM202.531 127.559C204.338 127.559 205.442 128.145 205.442 129.17C205.442 130.195 204.338 130.781 202.531 130.791C200.725 130.781 199.621 130.195 199.621 129.17C199.621 128.145 200.725 127.559 202.531 127.559ZM202.531 128.154C201.203 128.154 200.373 128.535 200.383 129.17C200.373 129.795 201.203 130.176 202.531 130.176C203.86 130.176 204.68 129.795 204.68 129.17C204.68 128.535 203.86 128.154 202.531 128.154ZM201.233 123.701C201.233 124.834 202.102 125.908 203.371 126.348L202.971 126.963C201.994 126.611 201.237 125.884 200.871 124.98C200.49 126.001 199.685 126.816 198.654 127.207L198.254 126.592C199.543 126.123 200.461 124.951 200.461 123.711V123.389H198.498V122.744H203.176V123.389H201.233V123.701ZM216.517 129.033V129.678H208.567V129.033H212.151V126.924H212.923V129.033H216.517ZM212.923 123.76C212.923 125.146 214.642 126.338 216.136 126.582L215.823 127.188C214.495 126.929 213.094 126.084 212.542 124.873C211.98 126.089 210.584 126.953 209.28 127.227L208.958 126.611C210.423 126.357 212.132 125.146 212.132 123.76V123.545H209.222V122.9H215.833V123.545H212.923V123.76ZM220.765 122.217C222.699 122.217 223.831 122.754 223.831 123.721C223.831 124.697 222.699 125.225 220.765 125.234C218.831 125.225 217.689 124.697 217.689 123.721C217.689 122.754 218.831 122.217 220.765 122.217ZM220.765 122.803C219.32 122.812 218.48 123.145 218.49 123.721C218.48 124.316 219.32 124.639 220.765 124.648C222.201 124.639 223.05 124.316 223.05 123.721C223.05 123.145 222.201 122.812 220.765 122.803ZM224.72 125.762V126.387H222.513V127.246H223.704V129.189H218.548V130.088H223.968V130.693H217.787V128.623H222.953V127.832H217.767V127.246H218.968V126.387H216.81V125.762H224.72ZM219.72 127.246H221.751V126.387H219.72V127.246ZM232.494 122.109V130.791H231.752V122.109H232.494ZM230.746 122.295V130.352H230.013V126.133H228.9C228.817 127.822 228.099 128.877 227.025 128.877C225.892 128.877 225.16 127.705 225.16 125.859C225.16 124.014 225.892 122.842 227.025 122.842C228.08 122.842 228.793 123.862 228.89 125.498H230.013V122.295H230.746ZM227.025 123.564C226.322 123.564 225.873 124.443 225.883 125.859C225.873 127.266 226.322 128.154 227.025 128.145C227.728 128.154 228.178 127.266 228.178 125.859C228.178 124.443 227.728 123.564 227.025 123.564ZM238.51 124.775C238.51 126.25 239.585 127.744 240.864 128.301L240.434 128.906C239.419 128.442 238.54 127.441 238.139 126.24C237.729 127.515 236.855 128.623 235.864 129.121L235.405 128.516C236.645 127.92 237.729 126.279 237.739 124.775V123.643H235.688V123.008H240.581V123.643H238.51V124.775ZM242.563 122.109V130.791H241.792V122.109H242.563ZM250.835 122.109V130.811H250.073V127.314H248.286V126.68H250.073V125.508H248.286V124.863H250.073V122.109H250.835ZM246.646 124.941C246.646 126.377 247.622 127.793 248.911 128.369L248.472 128.965C247.485 128.511 246.665 127.559 246.284 126.406C245.903 127.622 245.093 128.633 244.106 129.111L243.667 128.516C244.937 127.92 245.894 126.436 245.894 124.941V124.248H243.901V123.623H245.894V122.275H246.655V123.623H248.618V124.248H246.646V124.941ZM252.808 130.059C252.466 130.059 252.173 129.775 252.183 129.424C252.173 129.082 252.466 128.799 252.808 128.799C253.15 128.799 253.433 129.082 253.433 129.424C253.433 129.775 253.15 130.059 252.808 130.059ZM254.947 130.059C254.605 130.059 254.312 129.775 254.322 129.424C254.312 129.082 254.605 128.799 254.947 128.799C255.289 128.799 255.572 129.082 255.572 129.424C255.572 129.775 255.289 130.059 254.947 130.059Z" fill="black"/>
<rect opacity="0.8" x="40" y="155" width="134" height="24" rx="12" fill="white"/>
<path d="M59.6209 163.109V171.791H58.8885V163.109H59.6209ZM57.8631 163.344V171.352H57.1307V168.344H55.5193V167.709H57.1307V166.166H55.6658C55.241 167.636 54.2889 168.935 52.6482 169.916L52.1795 169.359C54.0691 168.241 55.0164 166.674 55.1678 164.857H52.5701V164.223H55.9295C55.9295 164.667 55.8904 165.106 55.8123 165.531H57.1307V163.344H57.8631ZM65.8908 163.91V164.496H60.7639V163.91H62.9416V163.061H63.7033V163.91H65.8908ZM63.3322 164.828C64.5725 164.828 65.4025 165.326 65.4123 166.127C65.4025 166.835 64.7336 167.304 63.7033 167.387V167.963C64.5139 167.929 65.3342 167.865 66.0959 167.758L66.1545 168.305C64.2502 168.617 62.1506 168.646 60.5881 168.646L60.4709 168.031C61.2082 168.031 62.0578 168.026 62.9416 167.992V167.387C61.9064 167.299 61.2521 166.835 61.2619 166.127C61.2521 165.326 62.0725 164.828 63.3322 164.828ZM63.3322 165.375C62.5217 165.365 61.9846 165.658 61.9846 166.127C61.9846 166.576 62.5217 166.869 63.3322 166.859C64.133 166.869 64.6701 166.576 64.6701 166.127C64.6701 165.658 64.133 165.365 63.3322 165.375ZM67.59 163.139V168.92H66.8186V163.139H67.59ZM67.59 169.33V171.791H66.8186V169.945H61.7307V169.33H67.59ZM72.6295 163.266C74.5631 163.266 75.6959 163.793 75.6959 164.76C75.6959 165.746 74.5631 166.273 72.6295 166.283C70.6959 166.273 69.5533 165.746 69.5533 164.76C69.5533 163.793 70.6959 163.266 72.6295 163.266ZM72.6295 163.842C71.1842 163.842 70.3443 164.193 70.3541 164.76C70.3443 165.365 71.1842 165.697 72.6295 165.697C74.065 165.697 74.9146 165.365 74.9146 164.76C74.9146 164.193 74.065 163.842 72.6295 163.842ZM76.5846 166.869V167.494H68.6744V166.869H76.5846ZM75.5689 168.246V170.189H70.4127V171.088H75.8326V171.693H69.651V169.623H74.817V168.832H69.6314V168.246H75.5689ZM81.3607 163.783C82.5424 163.793 83.392 164.804 83.5189 166.43H85.4623V163.109H86.224V171.811H85.4623V167.064H83.5287C83.4359 168.764 82.5717 169.828 81.3607 169.828C80.0814 169.828 79.183 168.656 79.183 166.811C79.183 164.965 80.0814 163.793 81.3607 163.783ZM81.3607 164.467C80.5014 164.477 79.9154 165.395 79.9154 166.811C79.9154 168.227 80.5014 169.145 81.3607 169.145C82.2104 169.145 82.8061 168.227 82.8061 166.811C82.8061 165.395 82.2104 164.477 81.3607 164.467ZM94.4275 163.109V171.811H93.6561V163.109H94.4275ZM91.9666 163.939V164.584H88.6072V168.988C90.2967 168.988 91.41 168.935 92.7088 168.705L92.7869 169.35C91.4393 169.594 90.2967 169.643 88.5389 169.652H87.8357V163.939H91.9666ZM98.5686 165.443C98.5686 167.016 99.5744 168.598 100.834 169.174L100.375 169.799C99.3889 169.291 98.5734 168.251 98.1877 167.016C97.802 168.314 96.9865 169.428 96.0002 169.955L95.5021 169.34C96.7717 168.715 97.7873 167.045 97.7873 165.443V163.861H98.5686V165.443ZM102.709 163.109V171.811H101.947V166.703H99.8869V166.078H101.947V163.109H102.709ZM111.694 168.266V168.891H108.071V171.791H107.319V168.891H103.745V168.266H111.694ZM105.522 163.471V164.672H109.897V163.471H110.669V167.211H104.76V163.471H105.522ZM105.522 166.586H109.897V165.297H105.522V166.586ZM119.194 163.109V171.811H118.433V167.025H116.597V166.391H118.433V163.109H119.194ZM116.45 163.91V164.545H113.169V166.352H116.069V166.977H113.169V169.076C114.766 169.076 115.781 169.022 116.978 168.812L117.065 169.447C115.806 169.652 114.741 169.711 113.062 169.711H112.397V163.91H116.45ZM126.685 164.613V165.238H122.33V164.613H124.137V163.373H124.898V164.613H126.685ZM124.508 165.824C125.601 165.824 126.383 166.645 126.392 167.797C126.383 168.959 125.601 169.789 124.508 169.789C123.424 169.789 122.642 168.959 122.642 167.797C122.642 166.645 123.424 165.824 124.508 165.824ZM124.508 166.469C123.824 166.479 123.326 167.035 123.326 167.797C123.326 168.568 123.824 169.125 124.508 169.115C125.201 169.125 125.709 168.568 125.709 167.797C125.709 167.035 125.201 166.479 124.508 166.469ZM129.742 163.109V171.791H129.01V167.406H127.857V171.361H127.135V163.324H127.857V166.771H129.01V163.109H129.742ZM132.916 163.783C134.196 163.793 135.104 164.965 135.113 166.811C135.104 168.656 134.196 169.828 132.916 169.828C131.627 169.828 130.729 168.656 130.729 166.811C130.729 164.965 131.627 163.793 132.916 163.783ZM132.916 164.467C132.057 164.477 131.451 165.395 131.451 166.811C131.451 168.227 132.057 169.145 132.916 169.145C133.785 169.145 134.371 168.227 134.371 166.811C134.371 165.395 133.785 164.477 132.916 164.467ZM138.717 165.297V165.951H137.311V167.885H138.717V168.529H137.311V171.791H136.549V163.109H137.311V165.297H138.717ZM145.622 163.08V165.189H146.94V165.824H145.622V167.885H144.86V163.08H145.622ZM145.622 168.334V170.258H140.856V171.107H145.944V171.693H140.104V169.691H144.86V168.91H140.085V168.334H145.622ZM144.03 163.9V164.516H138.854V163.9H141.061V163.021H141.823V163.9H144.03ZM141.442 164.906C142.702 164.906 143.522 165.453 143.532 166.332C143.522 167.211 142.702 167.758 141.442 167.758C140.172 167.758 139.342 167.211 139.352 166.332C139.342 165.453 140.172 164.906 141.442 164.906ZM141.442 165.473C140.622 165.473 140.075 165.814 140.085 166.332C140.075 166.859 140.622 167.182 141.442 167.182C142.262 167.182 142.799 166.859 142.809 166.332C142.799 165.814 142.262 165.473 141.442 165.473ZM153.952 163.109V166.693H155.271V167.338H153.952V171.791H153.181V163.109H153.952ZM149.714 164.057C149.704 166.127 149.235 168.158 147.663 169.828L147.048 169.389C148.361 168.046 148.889 166.43 148.991 164.701H147.321V164.057H149.714ZM152.097 164.057C152.087 166.117 151.784 168.51 150.163 170.404L149.538 169.975C150.896 168.441 151.306 166.513 151.374 164.701H149.987V164.057H152.097ZM156.238 171.059C155.896 171.059 155.603 170.775 155.613 170.424C155.603 170.082 155.896 169.799 156.238 169.799C156.579 169.799 156.863 170.082 156.863 170.424C156.863 170.775 156.579 171.059 156.238 171.059ZM158.377 171.059C158.035 171.059 157.742 170.775 157.752 170.424C157.742 170.082 158.035 169.799 158.377 169.799C158.719 169.799 159.002 170.082 159.002 170.424C159.002 170.775 158.719 171.059 158.377 171.059ZM160.106 168.959C160.115 167.65 160.516 167.25 161.19 166.84C161.59 166.596 161.903 166.205 161.903 165.658C161.903 164.994 161.385 164.574 160.74 164.574C160.184 164.574 159.627 164.906 159.569 165.707H158.68C158.729 164.525 159.627 163.832 160.74 163.832C161.961 163.832 162.762 164.623 162.762 165.697C162.762 166.459 162.401 166.996 161.795 167.367C161.19 167.738 160.965 168.109 160.946 168.959V169.008H160.106V168.959ZM160.555 171.059C160.213 171.059 159.92 170.775 159.93 170.424C159.92 170.082 160.213 169.799 160.555 169.799C160.897 169.799 161.18 170.082 161.18 170.424C161.18 170.775 160.897 171.059 160.555 171.059Z" fill="black"/>
<path d="M72.4047 50.7461C74.9887 50.7598 76.848 52.0176 76.848 53.9316C76.848 55.7432 75.2348 56.9463 72.9242 57.0898V59.6465H77.9965V60.5488H66.8676V59.6465H71.8715V57.0898C69.5678 56.9395 67.9613 55.7363 67.9613 53.9316C67.9613 52.0176 69.8207 50.7598 72.4047 50.7461ZM72.4047 51.6348C70.4359 51.6348 69.0004 52.5645 69.0004 53.9316C69.0004 55.3398 70.4359 56.2422 72.4047 56.2559C74.3734 56.2422 75.809 55.3398 75.809 53.9316C75.809 52.5645 74.3734 51.6348 72.4047 51.6348ZM88.5887 49.9531V62.1348H87.5086V49.9531H88.5887ZM85.1434 51.1152V52.0176H80.4402V58.1836C82.8055 58.1836 84.3641 58.1084 86.1824 57.7871L86.2918 58.6895C84.4051 59.0312 82.8055 59.0996 80.3445 59.1133H79.3602V51.1152H85.1434ZM99.673 49.9531V54.9023H101.642V55.8047H99.673V62.1074H98.6066V49.9531H99.673ZM96.5285 51.2656C96.5285 54.7109 94.9152 57.8418 90.9504 59.7969L90.3488 58.9492C93.4934 57.3838 95.2023 55.0459 95.4484 52.168H90.9094V51.2656H96.5285ZM114.596 49.9531V53.125H116.414V54.0273H114.596V57.2129H113.516V49.9531H114.596ZM110.686 57.4453C113.16 57.4453 114.691 58.3066 114.691 59.7559C114.691 61.2324 113.16 62.0801 110.686 62.0801C108.197 62.0801 106.652 61.2324 106.652 59.7559C106.652 58.3066 108.197 57.4453 110.686 57.4453ZM110.686 58.334C108.854 58.3203 107.705 58.8672 107.705 59.7559C107.705 60.6582 108.854 61.2188 110.686 61.2188C112.504 61.2188 113.652 60.6582 113.652 59.7559C113.652 58.8672 112.504 58.3203 110.686 58.334ZM111.041 50.8828V51.7715H106.693V55.3398C109.154 55.3262 110.576 55.251 112.203 54.916L112.312 55.8047C110.617 56.1465 109.154 56.2148 106.584 56.2148H105.641V50.8828H111.041ZM126.815 49.9668V58.8809H125.748V49.9668H126.815ZM127.198 60.9453V61.8477H118.967V58.0605H120.034V60.9453H127.198ZM121.086 51.8672C121.073 53.7129 122.344 55.3809 124.149 56.0371L123.588 56.8984C122.18 56.3584 121.086 55.2646 120.553 53.8633C120.013 55.3535 118.906 56.5498 117.491 57.1172L116.903 56.2832C118.748 55.5723 119.993 53.7812 119.993 51.8672V50.6504H121.086V51.8672ZM132.458 50.8418C134.372 50.8418 135.725 52.0039 135.725 53.6992C135.725 55.3945 134.372 56.5566 132.458 56.5566C130.544 56.5566 129.163 55.3945 129.177 53.6992C129.163 52.0039 130.544 50.8418 132.458 50.8418ZM132.458 51.7852C131.159 51.7852 130.216 52.5645 130.229 53.6992C130.216 54.834 131.159 55.6133 132.458 55.6133C133.743 55.6133 134.673 54.834 134.673 53.6992C134.673 52.5645 133.743 51.7852 132.458 51.7852ZM138.446 49.9531V62.1348H137.38V49.9531H138.446ZM128.548 58.5391C130.79 58.5391 133.88 58.5254 136.573 58.1289L136.655 58.9219C133.88 59.4414 130.886 59.4551 128.698 59.4551L128.548 58.5391ZM146.56 50.8965C147.674 50.9033 148.577 51.5527 149.103 52.6738H152.302V49.9531H153.369V62.1348H152.302V57.418H149.185C148.672 58.6484 147.736 59.3594 146.56 59.3594C144.769 59.3594 143.511 57.7188 143.511 55.1348C143.511 52.5508 144.769 50.9102 146.56 50.8965ZM146.56 51.8535C145.357 51.8672 144.537 53.1523 144.537 55.1348C144.537 57.1172 145.357 58.4023 146.56 58.4023C147.75 58.4023 148.584 57.1172 148.584 55.1348C148.584 53.1523 147.75 51.8672 146.56 51.8535ZM149.418 53.5762C149.527 54.0479 149.595 54.5674 149.595 55.1348C149.595 55.6338 149.541 56.1055 149.459 56.5293H152.302V53.5762H149.418ZM165.314 49.9531V57.6504H164.289V54.1641H162.662V57.2129H161.65V50.1992H162.662V53.2754H164.289V49.9531H165.314ZM161.158 51.416V52.2773H154.924V51.416H157.521V50.0488H158.588V51.416H161.158ZM158.055 52.9336C159.6 52.9336 160.652 53.7402 160.666 55.0117C160.652 56.2559 159.6 57.0762 158.055 57.0762C156.523 57.0762 155.443 56.2559 155.457 55.0117C155.443 53.7402 156.523 52.9336 158.055 52.9336ZM158.055 53.7266C157.084 53.7266 156.414 54.2461 156.414 55.0117C156.414 55.7637 157.084 56.2695 158.055 56.2695C159.025 56.2695 159.695 55.7637 159.695 55.0117C159.695 54.2461 159.025 53.7266 158.055 53.7266ZM161.295 57.8555C163.852 57.8555 165.383 58.6211 165.383 59.9883C165.383 61.3145 163.852 62.0801 161.295 62.0801C158.738 62.0801 157.207 61.3145 157.221 59.9883C157.207 58.6211 158.738 57.8555 161.295 57.8555ZM161.295 58.7031C159.408 58.6895 158.273 59.1543 158.287 59.9883C158.273 60.7812 159.408 61.2461 161.295 61.2461C163.182 61.2461 164.303 60.7812 164.316 59.9883C164.303 59.1543 163.182 58.6895 161.295 58.7031ZM174.905 51.375V54.5469H176.751V50.2129H177.776V61.4922H176.751V55.4355H174.905V58.8398H170.257V51.375H174.905ZM171.268 52.2363V57.9785H173.893V52.2363H171.268ZM180.223 49.9531V62.1074H179.184V49.9531H180.223ZM191.527 49.9531V62.1348H190.446V49.9531H191.527ZM185.06 50.8965C186.864 50.9102 188.163 52.5508 188.163 55.1348C188.163 57.7188 186.864 59.3594 185.06 59.3594C183.241 59.3594 181.956 57.7188 181.956 55.1348C181.956 52.5508 183.241 50.9102 185.06 50.8965ZM185.06 51.8535C183.843 51.8672 182.995 53.1523 182.995 55.1348C182.995 57.1172 183.843 58.4023 185.06 58.4023C186.277 58.4023 187.124 57.1172 187.124 55.1348C187.124 53.1523 186.277 51.8672 185.06 51.8535ZM203.048 56.5293V57.4043H194.64V51.0059H202.912V51.9082H195.734V53.7129H202.652V54.5742H195.734V56.5293H203.048ZM204.334 59.6328V60.5215H193.205V59.6328H204.334ZM214.311 49.9531V54.9023H216.279V55.8047H214.311V62.1074H213.244V49.9531H214.311ZM211.166 51.2656C211.166 54.7109 209.553 57.8418 205.588 59.7969L204.986 58.9492C208.131 57.3838 209.84 55.0459 210.086 52.168H205.547V51.2656H211.166ZM226.964 55.2031V56.0918H224.298V58.4844C225.487 58.4365 226.683 58.3545 227.811 58.2246L227.893 59.0312C225.2 59.4277 222.261 59.4688 219.936 59.4688L219.786 58.5664C220.846 58.5664 222.021 58.5596 223.231 58.5254V56.0918H220.716V51.1152H226.909V51.9902H221.768V55.2031H226.964ZM229.684 49.9531V62.1348H228.618V49.9531H229.684ZM234.685 50.8965C236.339 50.9102 237.529 52.3252 237.706 54.6016H240.427V49.9531H241.493V62.1348H240.427V55.4902H237.72C237.59 57.8691 236.38 59.3594 234.685 59.3594C232.894 59.3594 231.636 57.7188 231.636 55.1348C231.636 52.5508 232.894 50.9102 234.685 50.8965ZM234.685 51.8535C233.482 51.8672 232.661 53.1523 232.661 55.1348C232.661 57.1172 233.482 58.4023 234.685 58.4023C235.874 58.4023 236.708 57.1172 236.708 55.1348C236.708 53.1523 235.874 51.8672 234.685 51.8535ZM101.31 68.1836V69.4004C101.296 70.8906 101.296 72.5586 100.859 75.0059L99.7652 74.8828C100.23 72.5586 100.23 70.8496 100.23 69.4004V69.0723H92.7379V68.1836H101.31ZM102.636 76.4961V77.3848H91.5621V76.4961H95.9098V72.1484H96.9625V76.4961H102.636ZM109.605 68.0195V73.6523H103.904V68.0195H109.605ZM104.957 68.9082V72.791H108.553V68.9082H104.957ZM113.297 66.9668V75.7031H112.23V66.9668H113.297ZM113.68 77.8086V78.6973H105.449V74.8555H106.516V77.8086H113.68ZM120.498 67.1719C123.205 67.1719 124.791 67.9102 124.791 69.2637C124.791 70.6445 123.205 71.3828 120.498 71.3965C117.791 71.3828 116.192 70.6445 116.192 69.2637C116.192 67.9102 117.791 67.1719 120.498 67.1719ZM120.498 67.9785C118.475 67.9785 117.299 68.4707 117.313 69.2637C117.299 70.1113 118.475 70.5762 120.498 70.5762C122.508 70.5762 123.698 70.1113 123.698 69.2637C123.698 68.4707 122.508 67.9785 120.498 67.9785ZM126.036 72.2168V73.0918H114.961V72.2168H126.036ZM124.614 74.1445V76.8652H117.395V78.123H124.983V78.9707H116.329V76.0723H123.561V74.9648H116.301V74.1445H124.614ZM135.845 69.0586V69.9336H129.747V69.0586H132.277V67.3223H133.343V69.0586H135.845ZM132.796 70.7539C134.327 70.7539 135.421 71.9023 135.435 73.5156C135.421 75.1426 134.327 76.3047 132.796 76.3047C131.279 76.3047 130.185 75.1426 130.185 73.5156C130.185 71.9023 131.279 70.7539 132.796 70.7539ZM132.796 71.6562C131.839 71.6699 131.142 72.4492 131.142 73.5156C131.142 74.5957 131.839 75.375 132.796 75.3613C133.767 75.375 134.478 74.5957 134.478 73.5156C134.478 72.4492 133.767 71.6699 132.796 71.6562ZM140.124 66.9531V79.1074H139.099V72.9688H137.486V78.5059H136.474V67.2539H137.486V72.0801H139.099V66.9531H140.124ZM151.55 66.9531V73.1738H150.47V71.9023H147.23V71.0547H150.47V69.5918H147.408C146.642 71.5127 144.755 72.8047 142.062 73.4473L141.679 72.5586C144.66 71.8682 146.396 70.4121 146.601 68.457H142.295V67.5684H147.777C147.777 67.9717 147.736 68.3613 147.668 68.7305H150.47V66.9531H151.55ZM151.55 73.7207V76.6875H144.769V78.1094H151.961V78.998H143.703V75.8672H150.47V74.5957H143.675V73.7207H151.55ZM159.244 69.0586V69.9336H153.146V69.0586H155.676V67.3223H156.742V69.0586H159.244ZM156.195 70.7539C157.727 70.7539 158.82 71.9023 158.834 73.5156C158.82 75.1426 157.727 76.3047 156.195 76.3047C154.678 76.3047 153.584 75.1426 153.584 73.5156C153.584 71.9023 154.678 70.7539 156.195 70.7539ZM156.195 71.6562C155.238 71.6699 154.541 72.4492 154.541 73.5156C154.541 74.5957 155.238 75.375 156.195 75.3613C157.166 75.375 157.877 74.5957 157.877 73.5156C157.877 72.4492 157.166 71.6699 156.195 71.6562ZM163.523 66.9531V79.1074H162.498V72.9688H160.885V78.5059H159.873V67.2539H160.885V72.0801H162.498V66.9531H163.523ZM177.804 72.8047V73.6934H169.409V68.0879H177.68V68.9766H170.475V72.8047H177.804ZM179.116 76.5508V77.4531H167.987V76.5508H179.116ZM189.722 66.9668V73.6387H188.655V66.9668H189.722ZM185.853 67.5547V70.8359H181.368V72.4902C183.542 72.4766 185.169 72.4355 187.138 72.1074L187.261 72.9961C185.224 73.3242 183.556 73.3789 181.314 73.3926H180.329V69.9883H184.786V68.4434H180.302V67.5547H185.853ZM182.9 74.2539V75.7031H188.655V74.2539H189.722V78.9434H181.82V74.2539H182.9ZM182.9 78.0684H188.655V76.5645H182.9V78.0684ZM201.408 66.9531V79.1074H200.341V66.9531H201.408ZM193.232 68.1562V75.0469C195.085 75.04 197.005 74.8896 199.043 74.459L199.193 75.375C197.033 75.8262 195.105 75.9766 193.164 75.9766H192.179V68.1562H193.232ZM212.492 66.9531V71.7656H214.529V72.668H212.492V79.1348H211.426V66.9531H212.492ZM209.293 68.1426V69.0312H204.686V75.1836C206.887 75.1836 208.445 75.0811 210.25 74.7461L210.387 75.6758C208.486 76.0176 206.887 76.0859 204.576 76.0859H203.619V68.1426H209.293Z" fill="black"/>
<path d="M51.3281 23.2969C52.6094 23.2969 53.6641 24.0078 54.2969 25.25H57.5938V22.2656H59.3125V36.4062H57.5938V31.0625H54.4219C53.8125 32.4688 52.6953 33.2812 51.3281 33.2812C49.2031 33.2812 47.7031 31.3594 47.7031 28.2812C47.7031 25.2344 49.2031 23.2969 51.3281 23.2969ZM51.3281 24.8594C50.1562 24.8594 49.3594 26.125 49.375 28.2812C49.3594 30.4531 50.1562 31.7188 51.3281 31.7188C52.5 31.7188 53.2812 30.4531 53.2969 28.2812C53.2812 26.125 52.5 24.8594 51.3281 24.8594ZM54.7812 26.6719C54.8828 27.1641 54.9375 27.7031 54.9375 28.2812C54.9375 28.7734 54.8984 29.2266 54.8281 29.6562H57.5938V26.6719H54.7812ZM72.975 22.2656V31.1406H71.3188V27.2969H69.9438V30.6719H68.3188V22.5469H69.9438V25.8906H71.3188V22.2656H72.975ZM67.85 23.7969V25.1562H60.8188V23.7969H63.4906V22.3906H65.2094V23.7969H67.85ZM64.35 25.7344C66.1469 25.7344 67.4125 26.7031 67.4281 28.1719C67.4125 29.6406 66.1469 30.6094 64.35 30.6094C62.5844 30.6094 61.3031 29.6406 61.3188 28.1719C61.3031 26.7031 62.5844 25.7344 64.35 25.7344ZM64.35 26.9844C63.475 26.9844 62.8656 27.4375 62.8656 28.1719C62.8656 28.9062 63.4594 29.3594 64.35 29.3594C65.2406 29.3594 65.85 28.9062 65.85 28.1719C65.85 27.4375 65.2406 26.9844 64.35 26.9844ZM68.2094 31.3125C71.225 31.3125 73.0375 32.2344 73.0531 33.8594C73.0375 35.4531 71.225 36.375 68.2094 36.375C65.1938 36.375 63.3656 35.4531 63.3656 33.8594C63.3656 32.2344 65.1938 31.3125 68.2094 31.3125ZM68.2094 32.6406C66.1938 32.625 65.1 33.0312 65.1 33.8594C65.1 34.6406 66.1938 35.0469 68.2094 35.0469C70.2094 35.0469 71.3031 34.6406 71.3031 33.8594C71.3031 33.0312 70.2094 32.625 68.2094 32.6406ZM89.9094 22.2656V36.3906H88.2531V22.2656H89.9094ZM86.9875 22.6094V35.7188H85.3312V31H83.1281V29.5781H85.3312V27.4844H83.3781C82.7141 29.8281 81.2375 31.8438 78.5969 33.4062L77.5812 32.1719C80.5109 30.4453 81.8547 28.2344 82.1125 25.3906H78.3312V23.9844H83.8312C83.8312 24.6953 83.7844 25.3906 83.6906 26.0625H85.3312V22.6094H86.9875ZM100.009 23.3906V24.6719H91.65V23.3906H94.9469V22.1875H96.6813V23.3906H100.009ZM95.8375 25.0781C97.9 25.0625 99.3063 25.8906 99.3063 27.2031C99.3063 28.3125 98.275 29.0547 96.6813 29.25V30C97.8766 29.9453 99.0719 29.8438 100.197 29.7031L100.322 30.8906C97.2906 31.4062 93.9469 31.4531 91.4469 31.4531L91.2125 30.1094C92.3375 30.1172 93.6188 30.1094 94.9469 30.0625V29.2344C93.3453 29.0469 92.3375 28.3047 92.3531 27.2031C92.3375 25.8906 93.7281 25.0625 95.8375 25.0781ZM95.8375 26.25C94.7281 26.2344 94.0094 26.5781 94.025 27.2031C94.0094 27.7812 94.7281 28.125 95.8375 28.1094C96.9156 28.125 97.6344 27.7812 97.65 27.2031C97.6344 26.5781 96.9156 26.2344 95.8375 26.25ZM102.931 22.2969V31.7969H101.181V22.2969H102.931ZM102.931 32.375V36.3906H101.181V33.7344H93.2125V32.375H102.931ZM107.328 33.8906L106.016 38.2656H104.531L105.344 33.8906H107.328ZM118.794 23.5469V24.9688H114.091V31.5469C116.294 31.5312 117.848 31.4375 119.606 31.1094L119.794 32.5156C117.809 32.9062 116.106 32.9844 113.466 32.9844H112.341V23.5469H118.794ZM123.512 22.2656V36.4062H121.778V28.6562H118.044V27.2344H121.778V22.2656H123.512ZM140.228 22.2656V36.4062H138.478V22.2656H140.228ZM132.619 23.2969C134.744 23.2969 136.291 25.2344 136.306 28.2812C136.291 31.3594 134.744 33.2812 132.619 33.2812C130.478 33.2812 128.931 31.3594 128.931 28.2812C128.931 25.2344 130.478 23.2969 132.619 23.2969ZM132.619 24.8594C131.416 24.8594 130.603 26.125 130.603 28.2812C130.603 30.4531 131.416 31.7188 132.619 31.7188C133.806 31.7188 134.619 30.4531 134.619 28.2812C134.619 26.125 133.806 24.8594 132.619 24.8594ZM146.906 24.5156C146.906 26.2969 148.062 27.9688 150.234 28.6562L149.297 30.0156C147.773 29.5 146.68 28.4688 146.078 27.1562C145.453 28.6562 144.312 29.8359 142.688 30.4062L141.75 29.0469C144.031 28.25 145.156 26.375 145.172 24.3594V23.0156H146.906V24.5156ZM153.047 22.2656V25.7031H155.016V27.1406H153.047V30.7188H151.312V22.2656H153.047ZM148.453 31.0312C151.375 31.0156 153.172 32.0156 153.188 33.6875C153.172 35.3906 151.375 36.375 148.453 36.375C145.5 36.375 143.672 35.3906 143.672 33.6875C143.672 32.0156 145.5 31.0156 148.453 31.0312ZM148.453 32.3906C146.516 32.3906 145.406 32.8594 145.406 33.6875C145.406 34.5625 146.516 35 148.453 35C150.391 35 151.469 34.5625 151.469 33.6875C151.469 32.8594 150.391 32.3906 148.453 32.3906ZM170.262 23.5625V24.9219C170.247 26.6719 170.247 28.6406 169.7 31.5938L167.95 31.4062C168.497 28.6562 168.497 26.6484 168.512 24.9531H160.075V23.5625H170.262ZM171.606 33.1406V34.5625H158.731V33.1406H163.481V28.2344H165.2V33.1406H171.606ZM179.691 23.4375V30.1562H172.878V23.4375H179.691ZM174.597 24.8281V28.7656H177.972V24.8281H174.597ZM183.925 22.2812V32.3594H182.175V22.2812H183.925ZM184.316 34.6094V36.0156H174.581V31.4062H176.331V34.6094H184.316ZM196.65 22.2656V27.8906H198.822V29.3281H196.65V36.3906H194.931V22.2656H196.65ZM193.837 24.4375V25.8281H185.509V24.4375H188.853V22.4688H190.587V24.4375H193.837ZM189.728 26.75C191.759 26.75 193.275 28.125 193.275 30.0781C193.275 32.0312 191.759 33.3906 189.728 33.3906C187.666 33.3906 186.15 32.0312 186.166 30.0781C186.15 28.125 187.666 26.75 189.728 26.75ZM189.728 28.1719C188.619 28.1719 187.822 28.9219 187.822 30.0781C187.822 31.2344 188.619 31.9688 189.728 31.9531C190.806 31.9688 191.603 31.2344 191.619 30.0781C191.603 28.9219 190.806 28.1719 189.728 28.1719ZM204.344 26.2812C204.344 28.5938 205.703 31.0312 207.984 31.9844L207.031 33.3594C205.359 32.6406 204.141 31.1562 203.5 29.3594C202.844 31.2969 201.609 32.9219 199.953 33.7031L198.953 32.3438C201.188 31.3125 202.578 28.6875 202.578 26.2812V25.0938H199.469V23.6562H207.438V25.0938H204.344V26.2812ZM210.766 22.2656V36.3906H209.016V22.2656H210.766ZM223.028 23.6406V32.8906H216.341V23.6406H223.028ZM218.044 25V31.5H221.294V25H218.044ZM226.903 22.2656V27.6875H229.075V29.1562H226.903V36.3906H225.169V22.2656H226.903ZM233.675 25.9688C233.675 28.25 234.472 30.625 236.378 31.8281L235.425 33.1562C234.152 32.3906 233.323 31.0703 232.863 29.5156C232.347 31.2266 231.441 32.6719 230.113 33.4844L229.034 32.1875C231.081 30.9375 232.003 28.4531 232.003 26.0469V23.5156H233.675V25.9688ZM241.456 22.2656V36.3906H239.784V22.2656H241.456ZM238.519 22.5156V35.7031H236.878V28.5625H234.863V27.125H236.878V22.5156H238.519ZM255.603 33.25V34.6719H242.697V33.25H245.681V29.6719C244.556 29.0312 243.877 28.0234 243.884 26.7656C243.869 24.5156 246.087 23.0312 249.119 23.0312C252.166 23.0312 254.384 24.5156 254.384 26.7656C254.384 28 253.728 28.9922 252.634 29.6406V33.25H255.603ZM249.119 24.4062C247.009 24.4062 245.572 25.2969 245.587 26.7656C245.572 28.2188 247.009 29.125 249.119 29.125C251.228 29.125 252.681 28.2188 252.681 26.7656C252.681 25.2969 251.228 24.4062 249.119 24.4062ZM247.4 33.25H250.869V30.2969C250.33 30.4219 249.744 30.4844 249.119 30.4844C248.509 30.4844 247.931 30.4219 247.4 30.3125V33.25ZM259.031 23.6875L258.859 31.6719H257.094L256.906 23.6875H259.031ZM257.984 35.125C257.312 35.125 256.766 34.5781 256.766 33.9062C256.766 33.25 257.312 32.7031 257.984 32.7031C258.625 32.7031 259.188 33.25 259.188 33.9062C259.188 34.5781 258.625 35.125 257.984 35.125Z" fill="black"/>
<ellipse cx="223.731" cy="195.411" rx="27.3657" ry="26.4112" fill="white"/>
<ellipse cx="196.366" cy="222.577" rx="27.3657" ry="27.1658" fill="white"/>
<ellipse cx="262.5" cy="212.767" rx="27.3657" ry="27.1658" fill="white"/>
<ellipse cx="252.617" cy="254.27" rx="27.3657" ry="27.1658" fill="white"/>
<ellipse cx="214.61" cy="259.553" rx="27.3657" ry="27.1658" fill="white"/>
<ellipse cx="225.251" cy="227.105" rx="27.3657" ry="27.1658" fill="white"/>
<path d="M211.97 224.972C219.784 210.513 232.962 218.278 235.329 224.972" stroke="#ADCAEA" stroke-width="3.838"/>
<ellipse cx="229.763" cy="204.338" rx="3.99084" ry="5.28224" fill="#ADCAEA"/>
<ellipse cx="217.6" cy="204.338" rx="3.99084" ry="5.28224" fill="#ADCAEA"/>
</svg>
