<svg width="309" height="320" viewBox="0 0 309 320" fill="none" xmlns="http://www.w3.org/2000/svg">
<circle cx="133" cy="317" r="3" fill="#D9D9D9"/>
<circle cx="147" cy="317" r="2.5" stroke="#F29EC2"/>
<circle cx="161" cy="317" r="3" fill="#CECECE"/>
<circle cx="175" cy="317" r="3" fill="#CECECE"/>
<rect width="309" height="297.449" rx="25" fill="#F4B4CF"/>
<path d="M62 135.022C62 122.308 72.3075 112 85.0225 112H222.978C235.692 112 246 122.308 246 135.022V297H62V135.022Z" fill="white"/>
<path d="M125.412 242.837V244.986H126.622V245.867H125.412V247.948H124.328V242.837H125.412ZM122.556 248.113C124.347 248.113 125.48 248.752 125.489 249.836C125.48 250.939 124.347 251.578 122.556 251.578C120.746 251.578 119.594 250.939 119.594 249.836C119.594 248.752 120.746 248.113 122.556 248.113ZM122.556 248.974C121.356 248.974 120.649 249.274 120.659 249.836C120.649 250.407 121.356 250.717 122.556 250.717C123.737 250.717 124.444 250.407 124.444 249.836C124.444 249.274 123.737 248.974 122.556 248.974ZM122.759 243.457V244.328H119.904V246.525C121.578 246.52 122.513 246.472 123.544 246.254L123.65 247.116C122.517 247.358 121.482 247.396 119.546 247.396H118.839V243.457H122.759ZM134.109 242.847V249.236H133.024V242.847H134.109ZM134.351 250.543V251.414H128.32V248.626H129.404V250.543H134.351ZM130.082 244.183C130.082 245.402 130.798 246.554 132.182 247.019L131.631 247.871C130.633 247.522 129.922 246.825 129.54 245.935C129.143 246.888 128.421 247.653 127.391 248.026L126.829 247.174C128.252 246.67 128.968 245.441 128.968 244.183V243.331H130.082V244.183ZM137.975 243.447C139.359 243.437 140.376 244.318 140.385 245.557C140.376 246.806 139.359 247.677 137.975 247.677C136.6 247.677 135.574 246.806 135.574 245.557C135.574 244.318 136.6 243.437 137.975 243.447ZM137.975 244.376C137.21 244.376 136.639 244.831 136.639 245.557C136.639 246.293 137.21 246.738 137.975 246.738C138.749 246.738 139.33 246.293 139.33 245.557C139.33 244.831 138.749 244.376 137.975 244.376ZM142.428 242.837V251.598H141.353V242.837H142.428ZM135.177 248.887C136.755 248.887 138.943 248.868 140.831 248.597L140.918 249.381C138.953 249.758 136.852 249.768 135.313 249.768L135.177 248.887ZM147.954 243.476C148.747 243.476 149.401 243.916 149.793 244.686H151.835V242.837H152.9V251.598H151.835V248.287H149.87C149.493 249.158 148.801 249.662 147.954 249.662C146.637 249.662 145.708 248.471 145.708 246.564C145.708 244.676 146.637 243.476 147.954 243.476ZM147.954 244.444C147.228 244.444 146.734 245.228 146.744 246.564C146.734 247.91 147.228 248.694 147.954 248.694C148.68 248.694 149.164 247.91 149.173 246.564C149.164 245.228 148.68 244.444 147.954 244.444ZM150.093 245.567C150.156 245.872 150.19 246.206 150.19 246.564C150.19 246.869 150.166 247.15 150.122 247.416H151.835V245.567H150.093ZM161.365 242.837V248.335H160.339V245.954H159.487V248.045H158.48V243.011H159.487V245.083H160.339V242.837H161.365ZM158.19 243.786V244.628H153.833V243.786H155.489V242.914H156.554V243.786H158.19ZM156.021 244.986C157.134 244.986 157.919 245.586 157.928 246.496C157.919 247.406 157.134 248.006 156.021 248.006C154.927 248.006 154.134 247.406 154.143 246.496C154.134 245.586 154.927 244.986 156.021 244.986ZM156.021 245.76C155.479 245.76 155.102 246.041 155.102 246.496C155.102 246.951 155.469 247.232 156.021 247.232C156.573 247.232 156.951 246.951 156.951 246.496C156.951 246.041 156.573 245.76 156.021 245.76ZM158.412 248.442C160.281 248.442 161.403 249.013 161.413 250.02C161.403 251.007 160.281 251.578 158.412 251.578C156.544 251.578 155.411 251.007 155.411 250.02C155.411 249.013 156.544 248.442 158.412 248.442ZM158.412 249.265C157.163 249.255 156.486 249.507 156.486 250.02C156.486 250.504 157.163 250.756 158.412 250.756C159.651 250.756 160.329 250.504 160.329 250.02C160.329 249.507 159.651 249.255 158.412 249.265ZM172.292 247.745V248.616H170.346V251.588H169.252V248.616H167.316V251.588H166.213V248.616H164.296V247.745H172.292ZM168.275 243.147C170.133 243.156 171.43 243.912 171.43 245.102C171.43 246.274 170.133 247.019 168.275 247.019C166.406 247.019 165.128 246.274 165.138 245.102C165.128 243.912 166.406 243.156 168.275 243.147ZM168.275 244.018C167.036 244.018 166.232 244.415 166.242 245.102C166.232 245.77 167.036 246.167 168.275 246.167C169.514 246.167 170.317 245.77 170.317 245.102C170.317 244.415 169.514 244.018 168.275 244.018ZM177.533 243.708V244.56H172.644V243.708H174.6V242.76H175.674V243.708H177.533ZM175.122 244.909C176.313 244.909 177.165 245.567 177.175 246.545C177.165 247.513 176.313 248.161 175.122 248.161C173.932 248.161 173.09 247.513 173.099 246.545C173.09 245.567 173.932 244.909 175.122 244.909ZM175.122 245.712C174.503 245.712 174.096 246.022 174.106 246.545C174.096 247.058 174.503 247.358 175.122 247.358C175.742 247.358 176.168 247.058 176.168 246.545C176.168 246.022 175.742 245.712 175.122 245.712ZM179.953 242.837V248.442H178.878V247.416H177.581V246.554H178.878V245.693H177.591V244.821H178.878V242.837H179.953ZM177.01 248.539C178.859 248.539 180.001 249.1 180.001 250.059C180.001 251.007 178.859 251.578 177.01 251.578C175.161 251.578 174.019 251.007 174.019 250.059C174.019 249.1 175.161 248.539 177.01 248.539ZM177.01 249.362C175.829 249.362 175.152 249.594 175.152 250.059C175.152 250.514 175.829 250.756 177.01 250.756C178.181 250.756 178.849 250.514 178.849 250.059C178.849 249.594 178.181 249.362 177.01 249.362ZM188.921 247.358V248.219H180.944V247.358H188.921ZM188.021 250.543V251.414H181.932V248.868H183.006V250.543H188.021ZM184.923 243.118C186.83 243.118 188.069 243.786 188.079 244.889C188.069 246.002 186.83 246.68 184.923 246.68C183.016 246.68 181.767 246.002 181.767 244.889C181.767 243.786 183.016 243.118 184.923 243.118ZM184.923 243.979C183.655 243.979 182.88 244.308 182.89 244.889C182.88 245.48 183.655 245.809 184.923 245.799C186.201 245.809 186.965 245.48 186.965 244.889C186.965 244.308 186.201 243.979 184.923 243.979Z" fill="black"/>
<path d="M118.517 259.491V260.556H109.587V259.491H113.398V258.329H114.73V259.491H118.517ZM119.086 265.347V266.436H116.666V269.304H115.31V266.436H112.854V269.304H111.511V266.436H109.091V265.347H119.086ZM114.064 261.052C116.375 261.052 117.767 261.705 117.767 262.903C117.767 264.089 116.375 264.754 114.064 264.754C111.753 264.754 110.361 264.089 110.361 262.903C110.361 261.705 111.753 261.052 114.064 261.052ZM114.064 262.068C112.551 262.068 111.753 262.346 111.765 262.903C111.753 263.448 112.551 263.738 114.064 263.726C115.577 263.738 116.375 263.448 116.375 262.903C116.375 262.346 115.577 262.068 114.064 262.068ZM123.63 259.914C123.63 261.354 124.525 262.709 126.268 263.254L125.602 264.319C124.338 263.895 123.436 263.066 122.952 261.995C122.45 263.145 121.536 264.059 120.242 264.5L119.564 263.448C121.331 262.843 122.238 261.403 122.238 259.914V258.874H123.63V259.914ZM128.663 265.396V269.292H127.308V266.473H121.197V265.396H128.663ZM128.663 258.353V264.9H127.308V258.353H128.663ZM142.676 264.924V266.025H138.344V269.304H137.013V266.025H132.706V264.924H142.676ZM141.745 259.648V260.713H138.369C138.496 261.796 139.917 262.927 142.108 263.193L141.611 264.258C139.802 264.028 138.399 263.23 137.691 262.177C136.971 263.242 135.555 264.028 133.734 264.258L133.25 263.193C135.434 262.927 136.868 261.814 137.001 260.713H133.625V259.648H137.013V258.365H138.344V259.648H141.745ZM151.915 259.019V259.999C151.915 261.021 151.915 262.141 151.625 263.69H153.137V264.779H148.793V269.304H147.438V264.779H143.167V263.69H150.257C150.56 262.201 150.572 261.088 150.572 260.108H144.34V259.019H151.915ZM159.763 259.442V260.507H153.652V259.442H156.096V258.256H157.439V259.442H159.763ZM156.75 260.943C158.238 260.943 159.303 261.766 159.315 262.988C159.303 264.198 158.238 265.008 156.75 265.008C155.261 265.008 154.209 264.198 154.221 262.988C154.209 261.766 155.261 260.943 156.75 260.943ZM156.75 261.947C155.975 261.947 155.467 262.334 155.479 262.988C155.467 263.629 155.975 264.004 156.75 264.004C157.524 264.004 158.056 263.629 158.056 262.988C158.056 262.334 157.524 261.947 156.75 261.947ZM162.788 258.353V265.359H161.445V264.077H159.823V263H161.445V261.923H159.835V260.834H161.445V258.353H162.788ZM159.109 265.48C161.42 265.48 162.848 266.182 162.848 267.38C162.848 268.566 161.42 269.28 159.109 269.28C156.798 269.28 155.37 268.566 155.37 267.38C155.37 266.182 156.798 265.48 159.109 265.48ZM159.109 266.509C157.633 266.509 156.786 266.799 156.786 267.38C156.786 267.949 157.633 268.251 159.109 268.251C160.573 268.251 161.408 267.949 161.408 267.38C161.408 266.799 160.573 266.509 159.109 266.509ZM173.2 258.353V264.222H171.845V258.353H173.2ZM167.295 264.73V265.856H171.857V264.73H173.2V269.159H165.964V264.73H167.295ZM167.295 268.07H171.857V266.908H167.295V268.07ZM167.235 258.837C168.917 258.825 170.175 259.878 170.175 261.403C170.175 262.891 168.917 263.944 167.235 263.944C165.541 263.944 164.282 262.891 164.282 261.403C164.282 259.878 165.541 258.825 167.235 258.837ZM167.235 259.963C166.279 259.963 165.589 260.519 165.601 261.403C165.589 262.274 166.279 262.83 167.235 262.843C168.179 262.83 168.856 262.274 168.856 261.403C168.856 260.519 168.179 259.963 167.235 259.963ZM183.674 258.353V269.292H182.343V258.353H183.674ZM176.51 259.418V265.396C178.047 265.372 179.681 265.232 181.362 264.9L181.532 266.025C179.608 266.424 177.817 266.545 176.123 266.545H175.179V259.418H176.51ZM193.578 258.353V262.504H195.26V263.605H193.578V269.304H192.235V258.353H193.578ZM190.577 259.394V260.483H186.802V265.505C188.502 265.505 189.845 265.42 191.352 265.154L191.509 266.291C189.815 266.582 188.339 266.63 186.366 266.63H185.459V259.394H190.577ZM197.723 259.454L197.59 265.638H196.222L196.077 259.454H197.723ZM196.912 268.312C196.392 268.312 195.968 267.888 195.968 267.368C195.968 266.86 196.392 266.436 196.912 266.436C197.408 266.436 197.844 266.86 197.844 267.368C197.844 267.888 197.408 268.312 196.912 268.312Z" fill="#F29EC2"/>
<ellipse cx="153.264" cy="169.165" rx="17.5195" ry="17.0329" fill="#F4B4CF"/>
<circle cx="135.745" cy="186.684" r="17.5195" fill="#F4B4CF"/>
<circle cx="178.084" cy="180.358" r="17.5195" fill="#F4B4CF"/>
<circle cx="171.758" cy="207.124" r="17.5195" fill="#F4B4CF"/>
<circle cx="147.425" cy="210.53" r="17.5195" fill="#F4B4CF"/>
<circle cx="154.238" cy="189.604" r="17.5195" fill="#F4B4CF"/>
<path d="M143.531 182.791C150.042 193.035 161.024 187.534 162.997 182.791" stroke="#525566" stroke-width="2.47518"/>
<ellipse cx="157.765" cy="175.978" rx="2.55493" ry="3.40658" fill="#525566"/>
<ellipse cx="149.98" cy="175.978" rx="2.55493" ry="3.40658" fill="#525566"/>
<path fill-rule="evenodd" clip-rule="evenodd" d="M124.209 158.924C124.401 158.833 124.612 158.783 124.828 158.779C125.043 158.774 125.258 158.816 125.456 158.9C125.655 158.984 125.833 159.109 125.979 159.267C126.124 159.424 126.233 159.609 126.298 159.81L128.939 167.987C129.136 168.596 129.121 169.248 128.898 169.842C128.675 170.435 128.255 170.937 127.704 171.269C127.153 171.601 126.502 171.746 125.851 171.68C125.2 171.614 124.586 171.341 124.104 170.904C123.622 170.467 123.299 169.89 123.186 169.262C123.072 168.635 123.174 167.992 123.475 167.433C123.777 166.874 124.261 166.431 124.853 166.172C125.445 165.913 126.112 165.853 126.75 166.001L125.777 162.988L119.073 166.197L120.671 171.145C120.685 171.187 120.694 171.228 120.7 171.268C120.922 171.786 120.964 172.357 120.818 172.894C120.673 173.43 120.348 173.902 119.894 174.235C119.44 174.568 118.884 174.744 118.311 174.735C117.738 174.727 117.18 174.534 116.726 174.187C116.271 173.84 115.944 173.359 115.797 172.818C115.649 172.277 115.689 171.707 115.91 171.196C116.131 170.686 116.52 170.264 117.018 169.995C117.516 169.727 118.093 169.628 118.661 169.714L116.764 163.84C116.658 163.513 116.675 163.161 116.81 162.849C116.946 162.536 117.192 162.282 117.505 162.132L124.209 158.924ZM118.62 164.794L125.324 161.586L124.883 160.221L118.179 163.429L118.62 164.794Z" fill="black"/>
<path fill-rule="evenodd" clip-rule="evenodd" d="M186.355 157.806C186.569 157.826 186.776 157.891 186.96 157.997C187.144 158.103 187.301 158.247 187.421 158.419C187.541 158.591 187.621 158.787 187.655 158.994C187.688 159.2 187.675 159.412 187.616 159.615L185.213 167.856C185.034 168.47 184.653 169.012 184.128 169.399C183.604 169.786 182.965 169.996 182.312 169.996C181.659 169.996 181.027 169.787 180.515 169.4C180.003 169.014 179.64 168.471 179.48 167.858C179.321 167.244 179.376 166.593 179.635 166.006C179.895 165.419 180.345 164.928 180.916 164.61C181.487 164.292 182.147 164.164 182.793 164.247C183.439 164.33 184.036 164.618 184.491 165.067L185.376 162.031L177.901 161.329L176.447 166.316C176.435 166.358 176.419 166.397 176.401 166.434C176.296 166.984 176.007 167.487 175.58 167.866C175.153 168.244 174.612 168.477 174.041 168.527C173.469 168.578 172.9 168.443 172.421 168.144C171.942 167.846 171.581 167.4 171.394 166.876C171.206 166.352 171.203 165.78 171.385 165.249C171.567 164.717 171.924 164.257 172.399 163.938C172.875 163.62 173.443 163.462 174.015 163.488C174.587 163.515 175.13 163.725 175.561 164.086L177.287 158.167C177.383 157.837 177.596 157.549 177.888 157.354C178.18 157.159 178.532 157.07 178.881 157.103L186.355 157.806ZM178.313 159.915L185.788 160.617L186.189 159.242L178.714 158.54L178.313 159.915Z" fill="black"/>
<g clip-path="url(#clip0_1392_1330)">
<path d="M166.162 172.435C165.811 172.074 161.431 171.677 156.975 172.18C156.086 172.279 156.031 172.533 153.91 172.616C151.789 172.534 151.734 172.28 150.844 172.18C146.388 171.677 142.008 172.074 141.657 172.435C141.482 172.616 141.482 173.874 141.657 174.055C141.833 174.236 142.374 174.475 142.629 175.32C142.793 175.866 142.972 179.382 144.209 180.431C145.434 181.468 149.378 181.274 150.669 180.612C152.426 179.713 152.673 176.605 152.95 175.32C153.09 174.67 153.755 174.617 153.909 174.617C154.064 174.617 154.728 174.67 154.868 175.32C155.146 176.604 155.393 179.712 157.149 180.612C158.441 181.274 162.384 181.468 163.609 180.431C164.846 179.382 165.025 175.866 165.189 175.32C165.444 174.475 165.985 174.236 166.161 174.055C166.337 173.875 166.337 172.616 166.162 172.435Z" fill="#31373D"/>
<path d="M151.587 175.046C151.519 175.915 151.226 178.486 150.37 179.259C149.417 180.121 146.04 180.346 144.973 179.29C144.414 178.736 143.888 176.507 143.932 174.568C143.959 173.405 145.508 173.169 147.716 173.169C149.897 173.169 151.708 173.493 151.587 175.046ZM156.233 175.046C156.301 175.915 156.594 178.486 157.45 179.259C158.403 180.121 161.779 180.346 162.846 179.29C163.406 178.736 163.932 176.507 163.887 174.568C163.861 173.405 162.312 173.169 160.104 173.169C157.924 173.169 156.112 173.493 156.233 175.046Z" fill="#7FABDA"/>
</g>
<path d="M84 265C88.9707 265 93 260.971 93 256C93 251.029 88.9707 247 84 247C79.0293 247 75 251.029 75 256C75 260.971 79.0293 265 84 265Z" stroke="#F29EC2" stroke-width="1.8" stroke-linejoin="round"/>
<path d="M85.35 260.05L81.3 256L85.35 251.95" stroke="#F29EC2" stroke-width="1.8" stroke-linecap="round" stroke-linejoin="round"/>
<path d="M224.136 265C229.107 265 233.136 260.971 233.136 256C233.136 251.029 229.107 247 224.136 247C219.166 247 215.136 251.029 215.136 256C215.136 260.971 219.166 265 224.136 265Z" stroke="#F29EC2" stroke-width="1.8" stroke-linejoin="round"/>
<path d="M222.786 260.05L226.836 256L222.786 251.95" stroke="#F29EC2" stroke-width="1.8" stroke-linecap="round" stroke-linejoin="round"/>
<path d="M51.5289 50.8965C52.6432 50.9033 53.5455 51.5527 54.0719 52.6738H57.2711V49.9531H58.3375V62.1348H57.2711V57.418H54.1539C53.6412 58.6484 52.7047 59.3594 51.5289 59.3594C49.7379 59.3594 48.4801 57.7188 48.4801 55.1348C48.4801 52.5508 49.7379 50.9102 51.5289 50.8965ZM51.5289 51.8535C50.3258 51.8672 49.5055 53.1523 49.5055 55.1348C49.5055 57.1172 50.3258 58.4023 51.5289 58.4023C52.7184 58.4023 53.5523 57.1172 53.5523 55.1348C53.5523 53.1523 52.7184 51.8672 51.5289 51.8535ZM54.3863 53.5762C54.4957 54.0479 54.5641 54.5674 54.5641 55.1348C54.5641 55.6338 54.5094 56.1055 54.4273 56.5293H57.2711V53.5762H54.3863ZM70.2832 49.9531V57.6504H69.2578V54.1641H67.6309V57.2129H66.6191V50.1992H67.6309V53.2754H69.2578V49.9531H70.2832ZM66.127 51.416V52.2773H59.8926V51.416H62.4902V50.0488H63.5566V51.416H66.127ZM63.0234 52.9336C64.5684 52.9336 65.6211 53.7402 65.6348 55.0117C65.6211 56.2559 64.5684 57.0762 63.0234 57.0762C61.4922 57.0762 60.4121 56.2559 60.4258 55.0117C60.4121 53.7402 61.4922 52.9336 63.0234 52.9336ZM63.0234 53.7266C62.0527 53.7266 61.3828 54.2461 61.3828 55.0117C61.3828 55.7637 62.0527 56.2695 63.0234 56.2695C63.9941 56.2695 64.6641 55.7637 64.6641 55.0117C64.6641 54.2461 63.9941 53.7266 63.0234 53.7266ZM66.2637 57.8555C68.8203 57.8555 70.3516 58.6211 70.3516 59.9883C70.3516 61.3145 68.8203 62.0801 66.2637 62.0801C63.707 62.0801 62.1758 61.3145 62.1895 59.9883C62.1758 58.6211 63.707 57.8555 66.2637 57.8555ZM66.2637 58.7031C64.377 58.6895 63.2422 59.1543 63.2559 59.9883C63.2422 60.7812 64.377 61.2461 66.2637 61.2461C68.1504 61.2461 69.2715 60.7812 69.2852 59.9883C69.2715 59.1543 68.1504 58.6895 66.2637 58.7031ZM85.8895 56.8848V57.7734H82.95V62.1074H81.8699V57.7734H78.7527V62.1074H77.6453V57.7734H74.7605V56.8848H85.8895ZM80.2977 50.4453C82.8543 50.4453 84.577 51.4707 84.577 53.0977C84.577 54.7109 82.8543 55.7363 80.2977 55.7227C77.741 55.7363 76.0184 54.7109 76.0184 53.0977C76.0184 51.4707 77.741 50.4453 80.2977 50.4453ZM80.2977 51.3203C78.3973 51.3203 77.1121 52.0176 77.1258 53.0977C77.1121 54.1777 78.3973 54.8613 80.2977 54.8613C82.1844 54.8613 83.4832 54.1777 83.4832 53.0977C83.4832 52.0176 82.1844 51.3203 80.2977 51.3203ZM93.3645 51.3203V52.1953H86.4875V51.3203H89.4406V49.8574H90.507V51.3203H93.3645ZM89.9602 52.8242C91.5871 52.8242 92.7355 53.7129 92.7355 55.0664C92.7355 56.4336 91.5871 57.3223 89.9602 57.3223C88.3195 57.3223 87.1984 56.4336 87.2121 55.0664C87.1984 53.7129 88.3195 52.8242 89.9602 52.8242ZM89.9602 53.6309C88.9074 53.6445 88.2102 54.2188 88.2102 55.0664C88.2102 55.9277 88.9074 56.4883 89.9602 56.4883C91.0129 56.4883 91.7238 55.9277 91.7375 55.0664C91.7238 54.2188 91.0129 53.6445 89.9602 53.6309ZM96.55 49.9531V57.8145H95.4699V56.1328H93.3508V55.2441H95.4699V53.7676H93.3645V52.8789H95.4699V49.9531H96.55ZM92.5441 57.9375C95.0734 57.9375 96.6184 58.6895 96.6184 60.0156C96.6184 61.3145 95.0734 62.0801 92.5441 62.0801C89.9875 62.0801 88.4563 61.3145 88.4563 60.0156C88.4563 58.6895 89.9875 57.9375 92.5441 57.9375ZM92.5441 58.7715C90.6984 58.7715 89.5637 59.2227 89.5637 60.0156C89.5637 60.7812 90.6984 61.2461 92.5441 61.2461C94.3625 61.2461 95.4836 60.7812 95.4836 60.0156C95.4836 59.2227 94.3625 58.7715 92.5441 58.7715ZM106.291 51.4434V52.3047H102.791V54.7109H105.73V55.5723H102.791V58.3066C104.534 58.2861 105.601 58.2246 106.92 57.9785L107.016 58.8535C105.607 59.1406 104.459 59.168 102.531 59.1816H101.766V51.4434H106.291ZM111.691 49.9531V62.1074H110.652V49.9531H111.691ZM109.203 50.2539V61.4785H108.178V55.4629H106.387V54.5742H108.178V50.2539H109.203ZM119.043 51.7441C119.043 53.8223 121.422 55.6816 123.541 56.0781L123.049 56.9805C121.217 56.5566 119.283 55.251 118.496 53.4531C117.71 55.2441 115.783 56.5498 113.944 56.9805L113.452 56.0781C115.557 55.668 117.922 53.8359 117.922 51.7441V50.8145H119.043V51.7441ZM124.116 59.5645V60.4531H112.987V59.5645H124.116ZM134.53 56.5293V57.4043H126.122V51.0059H134.393V51.9082H127.216V53.7129H134.134V54.5742H127.216V56.5293H134.53ZM135.815 59.6328V60.5215H124.686V59.6328H135.815ZM147.515 59.7012V60.6035H136.386V59.7012H141.39V57.4043H137.78V53.6582H145.054V51.7441H137.753V50.8555H146.107V54.5332H138.847V56.5156H146.394V57.4043H142.443V59.7012H147.515ZM160.715 49.9531V53.125H162.533V54.0273H160.715V57.2129H159.635V49.9531H160.715ZM156.805 57.4453C159.279 57.4453 160.811 58.3066 160.811 59.7559C160.811 61.2324 159.279 62.0801 156.805 62.0801C154.316 62.0801 152.771 61.2324 152.771 59.7559C152.771 58.3066 154.316 57.4453 156.805 57.4453ZM156.805 58.334C154.973 58.3203 153.824 58.8672 153.824 59.7559C153.824 60.6582 154.973 61.2188 156.805 61.2188C158.623 61.2188 159.771 60.6582 159.771 59.7559C159.771 58.8672 158.623 58.3203 156.805 58.334ZM157.16 50.8828V51.7715H152.812V55.3398C155.273 55.3262 156.695 55.251 158.322 54.916L158.432 55.8047C156.736 56.1465 155.273 56.2148 152.703 56.2148H151.76V50.8828H157.16ZM172.934 49.9668V58.8809H171.868V49.9668H172.934ZM173.317 60.9453V61.8477H165.086V58.0605H166.153V60.9453H173.317ZM167.205 51.8672C167.192 53.7129 168.463 55.3809 170.268 56.0371L169.707 56.8984C168.299 56.3584 167.205 55.2646 166.672 53.8633C166.132 55.3535 165.025 56.5498 163.61 57.1172L163.022 56.2832C164.868 55.5723 166.112 53.7812 166.112 51.8672V50.6504H167.205V51.8672ZM178.577 50.8418C180.491 50.8418 181.845 52.0039 181.845 53.6992C181.845 55.3945 180.491 56.5566 178.577 56.5566C176.663 56.5566 175.282 55.3945 175.296 53.6992C175.282 52.0039 176.663 50.8418 178.577 50.8418ZM178.577 51.7852C177.278 51.7852 176.335 52.5645 176.348 53.6992C176.335 54.834 177.278 55.6133 178.577 55.6133C179.862 55.6133 180.792 54.834 180.792 53.6992C180.792 52.5645 179.862 51.7852 178.577 51.7852ZM184.565 49.9531V62.1348H183.499V49.9531H184.565ZM174.667 58.5391C176.909 58.5391 179.999 58.5254 182.692 58.1289L182.774 58.9219C179.999 59.4414 177.005 59.4551 174.817 59.4551L174.667 58.5391ZM192.679 50.8965C193.794 50.9033 194.696 51.5527 195.222 52.6738H198.421V49.9531H199.488V62.1348H198.421V57.418H195.304C194.792 58.6484 193.855 59.3594 192.679 59.3594C190.888 59.3594 189.63 57.7188 189.63 55.1348C189.63 52.5508 190.888 50.9102 192.679 50.8965ZM192.679 51.8535C191.476 51.8672 190.656 53.1523 190.656 55.1348C190.656 57.1172 191.476 58.4023 192.679 58.4023C193.869 58.4023 194.703 57.1172 194.703 55.1348C194.703 53.1523 193.869 51.8672 192.679 51.8535ZM195.537 53.5762C195.646 54.0479 195.714 54.5674 195.714 55.1348C195.714 55.6338 195.66 56.1055 195.578 56.5293H198.421V53.5762H195.537ZM211.434 49.9531V57.6504H210.408V54.1641H208.781V57.2129H207.77V50.1992H208.781V53.2754H210.408V49.9531H211.434ZM207.277 51.416V52.2773H201.043V51.416H203.641V50.0488H204.707V51.416H207.277ZM204.174 52.9336C205.719 52.9336 206.771 53.7402 206.785 55.0117C206.771 56.2559 205.719 57.0762 204.174 57.0762C202.643 57.0762 201.562 56.2559 201.576 55.0117C201.562 53.7402 202.643 52.9336 204.174 52.9336ZM204.174 53.7266C203.203 53.7266 202.533 54.2461 202.533 55.0117C202.533 55.7637 203.203 56.2695 204.174 56.2695C205.145 56.2695 205.814 55.7637 205.814 55.0117C205.814 54.2461 205.145 53.7266 204.174 53.7266ZM207.414 57.8555C209.971 57.8555 211.502 58.6211 211.502 59.9883C211.502 61.3145 209.971 62.0801 207.414 62.0801C204.857 62.0801 203.326 61.3145 203.34 59.9883C203.326 58.6211 204.857 57.8555 207.414 57.8555ZM207.414 58.7031C205.527 58.6895 204.393 59.1543 204.406 59.9883C204.393 60.7812 205.527 61.2461 207.414 61.2461C209.301 61.2461 210.422 60.7812 210.436 59.9883C210.422 59.1543 209.301 58.6895 207.414 58.7031ZM221.981 51.7441C221.981 53.8223 224.36 55.6816 226.479 56.0781L225.987 56.9805C224.155 56.5566 222.221 55.251 221.434 53.4531C220.648 55.2441 218.721 56.5498 216.882 56.9805L216.389 56.0781C218.495 55.668 220.86 53.8359 220.86 51.7441V50.8145H221.981V51.7441ZM227.054 59.5645V60.4531H215.925V59.5645H227.054ZM233.859 51.0605V51.9629H229.237V54.4785H233.585V55.3535H229.237V58.293C231.425 58.293 232.963 58.2041 234.788 57.8965L234.911 58.7852C233.011 59.0996 231.411 59.168 229.114 59.1816H228.157V51.0605H233.859ZM237.03 49.9531V54.8477H239.068V55.7637H237.03V62.1074H235.964V49.9531H237.03ZM242.769 50.4043C244.587 50.418 245.914 51.5117 245.914 53.0977C245.914 54.6836 244.587 55.7773 242.769 55.7773C240.923 55.7773 239.611 54.6836 239.611 53.0977C239.611 51.5117 240.923 50.418 242.769 50.4043ZM242.769 51.3066C241.552 51.3066 240.65 52.0449 240.664 53.0977C240.65 54.1641 241.552 54.9023 242.769 54.9023C243.972 54.9023 244.875 54.1641 244.875 53.0977C244.875 52.0449 243.972 51.3066 242.769 51.3066ZM249.359 49.9531V56.2012H248.293V49.9531H249.359ZM249.359 56.7891V59.7148H242.537V61.082H249.796V61.9434H241.484V58.9082H248.293V57.6504H241.457V56.7891H249.359ZM256.561 50.1719C259.268 50.1719 260.854 50.9102 260.854 52.2637C260.854 53.6445 259.268 54.3828 256.561 54.3965C253.854 54.3828 252.254 53.6445 252.254 52.2637C252.254 50.9102 253.854 50.1719 256.561 50.1719ZM256.561 50.9785C254.537 50.9785 253.361 51.4707 253.375 52.2637C253.361 53.1113 254.537 53.5762 256.561 53.5762C258.57 53.5762 259.76 53.1113 259.76 52.2637C259.76 51.4707 258.57 50.9785 256.561 50.9785ZM262.098 55.2168V56.0918H251.023V55.2168H262.098ZM260.676 57.1445V59.8652H253.457V61.123H261.045V61.9707H252.391V59.0723H259.623V57.9648H252.363V57.1445H260.676ZM78.1648 66.9531V69.5918H79.9969V70.4941H78.1648V73.1465H77.0984V66.9531H78.1648ZM78.1648 73.7207V76.6875H71.493V78.082H78.616V78.9434H70.4402V75.8672H77.0984V74.582H70.4129V73.7207H78.1648ZM72.0535 67.4043C73.8855 67.418 75.2117 68.5117 75.2117 70.0977C75.2117 71.6973 73.8855 72.8047 72.0535 72.8047C70.2352 72.8047 68.8816 71.6973 68.8953 70.0977C68.8816 68.5117 70.2352 67.418 72.0535 67.4043ZM72.0535 68.3066C70.8367 68.293 69.9344 69.0449 69.948 70.0977C69.9344 71.1641 70.8367 71.9297 72.0535 71.9297C73.2703 71.9297 74.159 71.1641 74.159 70.0977C74.159 69.0449 73.2703 68.293 72.0535 68.3066ZM83.6164 67.8965C85.4074 67.9102 86.6789 69.5508 86.6926 72.1348C86.6789 74.7188 85.4074 76.3594 83.6164 76.3594C81.8117 76.3594 80.5539 74.7188 80.5539 72.1348C80.5539 69.5508 81.8117 67.9102 83.6164 67.8965ZM83.6164 68.8535C82.4133 68.8672 81.5656 70.1523 81.5656 72.1348C81.5656 74.1172 82.4133 75.4023 83.6164 75.4023C84.8332 75.4023 85.6535 74.1172 85.6535 72.1348C85.6535 70.1523 84.8332 68.8672 83.6164 68.8535ZM89.7687 66.9531V71.8066H91.8059V72.7363H89.7687V79.1074H88.7023V66.9531H89.7687ZM103.191 76.6602V77.5488H92.0621V76.6602H97.066V74.0352H93.3746V67.8145H94.4547V70.0156H100.771V67.8145H101.824V74.0352H98.1187V76.6602H103.191ZM94.4547 73.1602H100.771V70.8906H94.4547V73.1602ZM113.51 68.1836V69.4004C113.496 70.8906 113.496 72.5586 113.059 75.0059L111.965 74.8828C112.43 72.5586 112.43 70.8496 112.43 69.4004V69.0723H104.937V68.1836H113.51ZM114.836 76.4961V77.3848H103.762V76.4961H108.109V72.1484H109.162V76.4961H114.836ZM128.61 66.9668V75.9492H127.544V66.9668H128.61ZM128.993 77.9453V78.8477H120.762V75.1152H121.829V77.9453H128.993ZM122.991 69.7969C122.991 71.4102 124.29 72.832 126.108 73.3926L125.575 74.2539C124.146 73.7959 123.018 72.8252 122.471 71.5605C121.938 72.9209 120.817 73.9736 119.368 74.4727L118.821 73.625C120.639 73.0371 121.925 71.5059 121.925 69.7969V69.4688H119.122V68.6074H121.925V67.0215H123.005V68.6074H125.78V69.4688H122.991V69.7969ZM139.886 67.7461V68.8125C139.886 69.9678 139.886 71.2188 139.544 72.9688H141.349V73.8574H136.331V79.1348H135.251V73.8574H130.275V72.9688H138.45C138.82 71.2188 138.82 69.9404 138.82 68.8125V68.6348H131.669V67.7461H139.886ZM153.062 72.0664V72.9277H141.974V72.0664H153.062ZM151.736 70.1934V71.0684H143.451V67.377H151.613V68.2383H144.531V70.1934H151.736ZM151.627 74.0215V76.8379H144.408V78.0957H151.996V78.9707H143.341V76.0312H150.574V74.8555H143.314V74.0215H151.627ZM160.414 68.3066V68.9355C160.4 69.8926 160.4 71.5059 160.059 73.7617L158.979 73.666C159.307 71.6289 159.334 70.1523 159.334 69.1816H154.234V68.3066H160.414ZM157.229 71.7793V75.4707C158.575 75.4229 159.956 75.334 161.221 75.1836L161.275 75.9902C158.719 76.3867 155.861 76.4414 153.688 76.4277L153.551 75.5391C154.351 75.5322 155.239 75.5254 156.176 75.498V71.7793H157.229ZM163.053 66.9531V72.0391H165.021V72.9688H163.053V79.1074H161.986V66.9531H163.053ZM173.983 74.6367C176.595 74.6367 178.249 75.457 178.249 76.8652C178.249 78.2598 176.595 79.0801 173.983 79.0801C171.386 79.0801 169.731 78.2598 169.731 76.8652C169.731 75.457 171.386 74.6367 173.983 74.6367ZM173.983 75.457C172.042 75.4707 170.784 76.0039 170.798 76.8652C170.784 77.7129 172.042 78.2324 173.983 78.2324C175.925 78.2324 177.169 77.7129 177.182 76.8652C177.169 76.0039 175.925 75.4707 173.983 75.457ZM178.153 67.582V68.6074C178.153 69.5918 178.153 70.5762 177.811 71.834L176.759 71.7109C177.087 70.4531 177.087 69.5645 177.087 68.6074V68.457H169.813V67.582H178.153ZM179.561 72.627V73.502H168.501V72.627H173.081V70.2754H174.134V72.627H179.561ZM191.302 73.8848V74.7734H188.362V79.1074H187.282V74.7734H184.165V79.1074H183.058V74.7734H180.173V73.8848H191.302ZM185.71 67.4453C188.267 67.4453 189.989 68.4707 189.989 70.0977C189.989 71.7109 188.267 72.7363 185.71 72.7227C183.154 72.7363 181.431 71.7109 181.431 70.0977C181.431 68.4707 183.154 67.4453 185.71 67.4453ZM185.71 68.3203C183.81 68.3203 182.525 69.0176 182.538 70.0977C182.525 71.1777 183.81 71.8613 185.71 71.8613C187.597 71.8613 188.896 71.1777 188.896 70.0977C188.896 69.0176 187.597 68.3203 185.71 68.3203ZM197.957 69.0586V69.9336H191.859V69.0586H194.388V67.3223H195.455V69.0586H197.957ZM194.908 70.7539C196.439 70.7539 197.533 71.9023 197.546 73.5156C197.533 75.1426 196.439 76.3047 194.908 76.3047C193.39 76.3047 192.296 75.1426 192.296 73.5156C192.296 71.9023 193.39 70.7539 194.908 70.7539ZM194.908 71.6562C193.951 71.6699 193.254 72.4492 193.254 73.5156C193.254 74.5957 193.951 75.375 194.908 75.3613C195.879 75.375 196.589 74.5957 196.589 73.5156C196.589 72.4492 195.879 71.6699 194.908 71.6562ZM202.236 66.9531V79.1074H201.211V72.9688H199.597V78.5059H198.586V67.2539H199.597V72.0801H201.211V66.9531H202.236ZM214.715 76.6602V77.5488H203.586V76.6602H208.59V74.0352H204.898V67.8145H205.979V70.0156H212.295V67.8145H213.348V74.0352H209.643V76.6602H214.715ZM205.979 73.1602H212.295V70.8906H205.979V73.1602ZM218.895 70.4121C218.895 72.3398 219.838 74.4316 221.452 75.3887L220.836 76.2227C219.667 75.5117 218.827 74.2129 218.403 72.7363C217.952 74.3496 217.049 75.7373 215.832 76.4824L215.149 75.6758C216.83 74.6914 217.856 72.5312 217.856 70.4531V68.1016H218.895V70.4121ZM225.704 66.9531V79.1074H224.664V66.9531H225.704ZM223.188 67.2129V78.4922H222.176V72.2305H220.112V71.3145H222.176V67.2129H223.188ZM238.114 76.6465V77.5488H226.985V76.6465H229.747V73.3652C228.708 72.8252 228.079 71.9502 228.079 70.8496C228.079 68.9629 229.925 67.7324 232.522 67.7188C235.12 67.7324 236.966 68.9629 236.966 70.8496C236.966 71.9297 236.357 72.7979 235.352 73.3379V76.6465H238.114ZM232.522 68.6074C230.526 68.5938 229.118 69.4961 229.118 70.8496C229.118 72.2031 230.526 73.1191 232.522 73.1191C234.505 73.1191 235.927 72.2031 235.927 70.8496C235.927 69.4961 234.505 68.5938 232.522 68.6074ZM230.8 76.6465H234.272V73.748C233.746 73.8916 233.158 73.9668 232.522 73.9668C231.9 73.9668 231.319 73.8984 230.8 73.7617V76.6465Z" fill="black"/>
<path d="M69.625 27.7188V29.1406H67.5312V36.3594H65.7969V22.2656H67.5312V27.7188H69.625ZM58.6875 23.6406V31.4375C60.5703 31.4062 62.5781 31.2422 64.7031 30.7969L64.8906 32.2656C62.5156 32.7344 60.25 32.875 58.1562 32.875H56.9688V23.6406H58.6875ZM74.475 23.25C76.7094 23.2344 78.35 24.6562 78.3656 26.6562C78.35 28.6719 76.7094 30.0781 74.475 30.0781C72.2563 30.0781 70.6 28.6719 70.6 26.6562C70.6 24.6562 72.2563 23.2344 74.475 23.25ZM74.475 24.75C73.2406 24.75 72.3188 25.4844 72.3188 26.6562C72.3188 27.8438 73.2406 28.5625 74.475 28.5625C75.725 28.5625 76.6625 27.8438 76.6625 26.6562C76.6625 25.4844 75.725 24.75 74.475 24.75ZM81.6625 22.2656V36.4062H79.9281V22.2656H81.6625ZM69.9594 32.0312C72.5063 32.0312 76.0375 32 79.0844 31.5625L79.225 32.8281C76.0531 33.4375 72.6625 33.4531 70.1781 33.4531L69.9594 32.0312ZM90.5812 23.2969C91.8625 23.2969 92.9172 24.0078 93.55 25.25H96.8469V22.2656H98.5656V36.4062H96.8469V31.0625H93.675C93.0656 32.4688 91.9484 33.2812 90.5812 33.2812C88.4562 33.2812 86.9562 31.3594 86.9562 28.2812C86.9562 25.2344 88.4562 23.2969 90.5812 23.2969ZM90.5812 24.8594C89.4094 24.8594 88.6125 26.125 88.6281 28.2812C88.6125 30.4531 89.4094 31.7188 90.5812 31.7188C91.7531 31.7188 92.5344 30.4531 92.55 28.2812C92.5344 26.125 91.7531 24.8594 90.5812 24.8594ZM94.0344 26.6719C94.1359 27.1641 94.1906 27.7031 94.1906 28.2812C94.1906 28.7734 94.1516 29.2266 94.0812 29.6562H96.8469V26.6719H94.0344ZM112.228 22.2656V31.1406H110.572V27.2969H109.197V30.6719H107.572V22.5469H109.197V25.8906H110.572V22.2656H112.228ZM107.103 23.7969V25.1562H100.072V23.7969H102.744V22.3906H104.463V23.7969H107.103ZM103.603 25.7344C105.4 25.7344 106.666 26.7031 106.681 28.1719C106.666 29.6406 105.4 30.6094 103.603 30.6094C101.838 30.6094 100.556 29.6406 100.572 28.1719C100.556 26.7031 101.838 25.7344 103.603 25.7344ZM103.603 26.9844C102.728 26.9844 102.119 27.4375 102.119 28.1719C102.119 28.9062 102.713 29.3594 103.603 29.3594C104.494 29.3594 105.103 28.9062 105.103 28.1719C105.103 27.4375 104.494 26.9844 103.603 26.9844ZM107.463 31.3125C110.478 31.3125 112.291 32.2344 112.306 33.8594C112.291 35.4531 110.478 36.375 107.463 36.375C104.447 36.375 102.619 35.4531 102.619 33.8594C102.619 32.2344 104.447 31.3125 107.463 31.3125ZM107.463 32.6406C105.447 32.625 104.353 33.0312 104.353 33.8594C104.353 34.6406 105.447 35.0469 107.463 35.0469C109.463 35.0469 110.556 34.6406 110.556 33.8594C110.556 33.0312 109.463 32.625 107.463 32.6406ZM124.272 24.2031C124.272 26.3906 126.412 28.5781 129.366 29.0938L128.584 30.5469C126.217 30.0469 124.28 28.6172 123.366 26.7188C122.428 28.6016 120.491 30.0391 118.131 30.5469L117.366 29.0938C120.287 28.5625 122.412 26.375 122.428 24.2031V23.1562H124.272V24.2031ZM129.881 33.1562V34.5938H116.975V33.1562H129.881ZM137.653 23.4844V24.9062H132.747V27.4219H137.403V28.7969H132.747V31.7031C134.919 31.6875 136.614 31.6094 138.591 31.2812L138.747 32.6875C136.575 33.0312 134.684 33.1094 132.153 33.1094H130.981V23.4844H137.653ZM141.466 22.2656V27.7344H143.637V29.1875H141.466V36.3906H139.731V22.2656H141.466ZM147.831 22.7188C149.972 22.7188 151.566 24.0469 151.581 25.9062C151.566 27.7812 149.972 29.0938 147.831 29.0938C145.675 29.0938 144.081 27.7812 144.081 25.9062C144.081 24.0469 145.675 22.7188 147.831 22.7188ZM147.831 24.1562C146.644 24.1562 145.769 24.8281 145.769 25.9062C145.769 27 146.644 27.6875 147.831 27.6875C149.019 27.6875 149.894 27 149.894 25.9062C149.894 24.8281 149.019 24.1562 147.831 24.1562ZM155.597 22.2656V29.4062H153.847V22.2656H155.597ZM155.597 30.0156V33.7031H147.956V34.8438H156.019V36.2188H146.253V32.4219H153.863V31.375H146.222V30.0156H155.597ZM163.681 22.4844C166.9 22.4844 168.759 23.3438 168.775 24.9062C168.759 26.4844 166.9 27.3281 163.681 27.3438C160.463 27.3281 158.588 26.4844 158.588 24.9062C158.588 23.3438 160.463 22.4844 163.681 22.4844ZM163.681 23.7656C161.525 23.7656 160.4 24.1719 160.416 24.9062C160.4 25.6875 161.525 26.0469 163.681 26.0469C165.869 26.0469 166.978 25.6875 166.978 24.9062C166.978 24.1719 165.869 23.7656 163.681 23.7656ZM170.134 28.0938V29.4844H157.259V28.0938H170.134ZM168.525 30.4375V33.8906H160.494V34.9375H168.916V36.2656H158.791V32.6562H166.822V31.7188H158.775V30.4375H168.525ZM176.287 22.8906V24.6875H179.584V22.8906H181.303V29.0469H174.569V22.8906H176.287ZM176.287 27.6719H179.584V26H176.287V27.6719ZM185.225 22.2656V25.125H187.194V26.5312H185.225V29.5H183.491V22.2656H185.225ZM185.225 30.0625V33.7656H177.725V34.8906H185.662V36.2656H176.006V32.5H183.491V31.4219H175.991V30.0625H185.225ZM199.341 22.2812V32.7188H197.606V29.6406H194.2V28.2188H197.606V26.4688H194.387C193.387 28.6406 191.309 30.2656 188.45 31.1406L187.716 29.7812C190.833 28.7812 192.833 26.9844 193.153 24.75H188.45V23.3594H195.059C195.059 23.9531 194.989 24.5234 194.872 25.0625H197.606V22.2812H199.341ZM199.7 34.7031V36.1094H190.137V31.6875H191.903V34.7031H199.7ZM212.003 22.2656V27.8906H214.175V29.3281H212.003V36.3906H210.284V22.2656H212.003ZM209.191 24.4375V25.8281H200.863V24.4375H204.206V22.4688H205.941V24.4375H209.191ZM205.081 26.75C207.113 26.75 208.628 28.125 208.628 30.0781C208.628 32.0312 207.113 33.3906 205.081 33.3906C203.019 33.3906 201.503 32.0312 201.519 30.0781C201.503 28.125 203.019 26.75 205.081 26.75ZM205.081 28.1719C203.972 28.1719 203.175 28.9219 203.175 30.0781C203.175 31.2344 203.972 31.9688 205.081 31.9531C206.159 31.9688 206.956 31.2344 206.972 30.0781C206.956 28.9219 206.159 28.1719 205.081 28.1719ZM218.775 25.9688C218.775 28.25 219.572 30.625 221.478 31.8281L220.525 33.1562C219.252 32.3906 218.423 31.0703 217.962 29.5156C217.447 31.2266 216.541 32.6719 215.212 33.4844L214.134 32.1875C216.181 30.9375 217.103 28.4531 217.103 26.0469V23.5156H218.775V25.9688ZM226.556 22.2656V36.3906H224.884V22.2656H226.556ZM223.619 22.5156V35.7031H221.978V28.5625H219.962V27.125H221.978V22.5156H223.619ZM240.703 33.25V34.6719H227.797V33.25H230.781V29.6719C229.656 29.0312 228.977 28.0234 228.984 26.7656C228.969 24.5156 231.188 23.0312 234.219 23.0312C237.266 23.0312 239.484 24.5156 239.484 26.7656C239.484 28 238.828 28.9922 237.734 29.6406V33.25H240.703ZM234.219 24.4062C232.109 24.4062 230.672 25.2969 230.688 26.7656C230.672 28.2188 232.109 29.125 234.219 29.125C236.328 29.125 237.781 28.2188 237.781 26.7656C237.781 25.2969 236.328 24.4062 234.219 24.4062ZM232.5 33.25H235.969V30.2969C235.43 30.4219 234.844 30.4844 234.219 30.4844C233.609 30.4844 233.031 30.4219 232.5 30.3125V33.25ZM244.131 23.6875L243.959 31.6719H242.194L242.006 23.6875H244.131ZM243.084 35.125C242.413 35.125 241.866 34.5781 241.866 33.9062C241.866 33.25 242.413 32.7031 243.084 32.7031C243.725 32.7031 244.288 33.25 244.288 33.9062C244.288 34.5781 243.725 35.125 243.084 35.125Z" fill="black"/>
<defs>
<clipPath id="clip0_1392_1330">
<rect width="24.9377" height="24.9377" fill="white" transform="translate(141.443 164.171)"/>
</clipPath>
</defs>
</svg>
