<svg width="193" height="113" viewBox="0 0 193 113" fill="none" xmlns="http://www.w3.org/2000/svg">
<ellipse cx="49.8482" cy="43.0619" rx="19.5836" ry="19.0396" fill="#F4B4CF"/>
<circle cx="30.2647" cy="62.6454" r="19.5836" fill="#F4B4CF"/>
<circle cx="77.5919" cy="55.5735" r="19.5836" fill="#F4B4CF"/>
<circle cx="70.5201" cy="85.493" r="19.5836" fill="#F4B4CF"/>
<circle cx="43.3209" cy="89.3007" r="19.5836" fill="#F4B4CF"/>
<circle cx="50.9366" cy="65.9094" r="19.5836" fill="#F4B4CF"/>
<path d="M38.9688 58.2935C46.2474 69.7449 58.5226 63.595 60.7283 58.2935" stroke="#525566" stroke-width="2.76678"/>
<ellipse cx="54.8799" cy="50.6777" rx="2.85594" ry="3.80791" fill="#525566"/>
<ellipse cx="46.1767" cy="50.6777" rx="2.85594" ry="3.80791" fill="#525566"/>
<path d="M7.85842 48.3561C11.9631 48.8679 15.7053 45.9555 16.2171 41.8508C16.7289 37.7462 13.8165 34.0039 9.7118 33.4921C5.60714 32.9803 1.8649 35.8928 1.3531 39.9974C0.841291 44.1021 3.75376 47.8443 7.85842 48.3561Z" stroke="#939292" stroke-width="1.76225" stroke-linejoin="round"/>
<path d="M12.4117 38.1186C12.0835 37.6895 11.6746 37.3307 11.2086 37.0628C10.7427 36.7949 10.2287 36.6232 9.69641 36.5576C9.16426 36.4905 8.62391 36.5308 8.10642 36.676C7.58893 36.8213 7.1045 37.0687 6.68097 37.404M14.5276 48.2319L18.2819 53.1268" stroke="#939292" stroke-width="1.76225" stroke-linecap="round" stroke-linejoin="round"/>
<path d="M41.0712 27.341L41.0457 24.5437C41.022 21.9471 42.0307 19.4475 43.85 17.5946C45.6693 15.7418 48.1502 14.6876 50.7468 14.6638C53.3434 14.6401 55.843 15.6489 57.6959 17.4682C59.5487 19.2875 60.6029 21.7683 60.6267 24.3649L60.6522 27.1622L41.0712 27.341ZM41.0712 27.341L34.078 27.4049L41.0712 27.341ZM50.7213 11.8805L50.7352 11.865L50.7213 11.8805Z" fill="#7FABDA"/>
<path d="M41.0712 27.341L41.0457 24.5437C41.022 21.9471 42.0307 19.4475 43.85 17.5946C45.6693 15.7418 48.1502 14.6876 50.7468 14.6638C53.3434 14.6401 55.843 15.6489 57.6959 17.4682C59.5487 19.2875 60.6029 21.7683 60.6267 24.3649L60.6522 27.1622L41.0712 27.341ZM41.0712 27.341L34.078 27.4049M50.7213 11.8805L50.7352 11.865" stroke="#7FABDA" stroke-width="2.09805" stroke-linecap="round" stroke-linejoin="round"/>
<ellipse cx="145.167" cy="41.0397" rx="19.5836" ry="19.0396" fill="#F4B4CF"/>
<circle cx="125.584" cy="60.6232" r="19.5836" fill="#F4B4CF"/>
<circle cx="172.911" cy="53.5513" r="19.5836" fill="#F4B4CF"/>
<circle cx="165.838" cy="83.4708" r="19.5836" fill="#F4B4CF"/>
<circle cx="138.639" cy="87.2785" r="19.5836" fill="#F4B4CF"/>
<circle cx="146.255" cy="63.8871" r="19.5836" fill="#F4B4CF"/>
<path d="M134.287 56.2713C141.566 67.7226 153.841 61.5728 156.047 56.2712" stroke="#525566" stroke-width="2.76678"/>
<ellipse cx="150.199" cy="48.6554" rx="2.85594" ry="3.80791" fill="#525566"/>
<ellipse cx="141.496" cy="48.6554" rx="2.85594" ry="3.80791" fill="#525566"/>
<path d="M152.379 108.991V107.309C151.454 107.309 150.662 106.98 150.004 106.321C149.345 105.663 149.016 104.871 149.015 103.944V85.4408C149.015 84.5156 149.344 83.7239 150.004 83.0656C150.663 82.4073 151.455 82.0776 152.379 82.0765H155.743V77.03C155.743 76.5534 155.905 76.1542 156.228 75.8324C156.551 75.5105 156.95 75.349 157.425 75.3479H164.154C164.631 75.3479 165.03 75.5094 165.353 75.8324C165.676 76.1553 165.837 76.5546 165.836 77.03V82.0765H169.2C170.126 82.0765 170.918 82.4062 171.577 83.0656C172.237 83.725 172.566 84.5167 172.565 85.4408V103.944C172.565 104.87 172.236 105.662 171.577 106.321C170.919 106.981 170.127 107.31 169.2 107.309V108.991H165.836V107.309H155.743V108.991H152.379ZM159.108 82.0765H162.472V78.7122H159.108V82.0765ZM160.79 92.1694C162.276 92.1694 163.727 91.9804 165.143 91.6025C166.559 91.2246 167.912 90.6566 169.2 89.8985V85.4408H152.379V89.8985C153.669 90.6554 155.022 91.2235 156.438 91.6025C157.854 91.9815 159.305 92.1705 160.79 92.1694ZM159.108 97.2158V95.4496C157.93 95.3094 156.781 95.0991 155.659 94.8188C154.538 94.5384 153.444 94.1599 152.379 93.6833V103.944H169.2V93.6833C168.135 94.1599 167.042 94.5384 165.92 94.8188C164.799 95.0991 163.649 95.3094 162.472 95.4496V97.2158H159.108Z" fill="#939292"/>
</svg>
