<svg width="142" height="175" viewBox="0 0 142 175" fill="none" xmlns="http://www.w3.org/2000/svg">
<ellipse cx="81.4037" cy="39.2627" rx="40.3846" ry="39.2628" fill="white"/>
<circle cx="41.0194" cy="79.6472" r="40.3846" fill="white"/>
<circle cx="138.615" cy="65.0639" r="40.3846" fill="white"/>
<circle cx="124.032" cy="126.763" r="40.3846" fill="white"/>
<circle cx="67.9427" cy="134.615" r="40.3846" fill="white"/>
<circle cx="83.6473" cy="86.3783" r="40.3846" fill="white"/>
<path d="M58.9678 70.673C73.9775 94.2876 99.2912 81.6056 103.84 70.6729" stroke="#ADCAEA" stroke-width="5.70557"/>
<path d="M95.7068 54.9677C95.7068 56.7524 95.1618 58.2926 94.3745 59.3424C93.5876 60.3916 92.6504 60.8571 91.7805 60.8571C90.9107 60.8571 89.9735 60.3916 89.1866 59.3424C88.3993 58.2926 87.8542 56.7524 87.8542 54.9677C87.8542 53.1829 88.3993 51.6427 89.1866 50.593C89.9735 49.5438 90.9107 49.0782 91.7805 49.0782C92.6504 49.0782 93.5876 49.5438 94.3745 50.593C95.1618 51.6427 95.7068 53.1829 95.7068 54.9677Z" fill="#ADCAEA" stroke="#ADCAEA" stroke-width="3.92627"/>
<path d="M77.7576 54.9677C77.7576 56.7524 77.2126 58.2926 76.4253 59.3424C75.6384 60.3916 74.7012 60.8571 73.8313 60.8571C72.9614 60.8571 72.0243 60.3916 71.2374 59.3424C70.45 58.2926 69.905 56.7524 69.905 54.9677C69.905 53.1829 70.45 51.6427 71.2374 50.593C72.0243 49.5438 72.9614 49.0782 73.8313 49.0782C74.7012 49.0782 75.6384 49.5438 76.4253 50.593C77.2126 51.6427 77.7576 53.1829 77.7576 54.9677Z" fill="#ADCAEA" stroke="#ADCAEA" stroke-width="3.92627"/>
</svg>
